<svg width="71" height="83" viewBox="0 0 71 83" fill="none" xmlns="http://www.w3.org/2000/svg">
<path fill-rule="evenodd" clip-rule="evenodd" d="M1.94403 41.9662C2.14487 30.4716 4.6025 22.2261 10.708 15.8343C31.5017 -5.93465 63.8982 6.68806 68.6787 31.7415C68.9125 32.9677 69.0708 34.1614 69.1773 35.4133C69.2917 36.7584 69.2763 38.3427 69.931 39.5868C70.8017 23.5514 63.3891 9.93069 49.8843 4.115C20.4578 -8.55707 -4.18907 20.113 1.94403 41.9662Z" fill="#168944" stroke="#168944" stroke-width="0.191077" stroke-miterlimit="22.9256"/>
<path fill-rule="evenodd" clip-rule="evenodd" d="M66.1003 50.2357C61.204 46.7938 58.647 45.0231 51.156 45.8361C43.2405 46.695 46.5089 37.9638 47.2941 32.6611C37.8609 36.0229 37.9425 61.6876 39.0926 68.8744C42.8961 62.4548 41.0866 61.6589 48.464 53.6597C55.3947 46.145 61.9643 49.4431 66.1003 50.2357Z" fill="#3F4096"/>
<path fill-rule="evenodd" clip-rule="evenodd" d="M32.1036 68.804C33.6891 65.3108 33.5216 36.0894 24.0239 32.6299C25.1422 39.5295 27.454 46.2913 20.5462 45.8979C15.648 45.619 9.29279 45.8511 5.69043 50.0513C9.72112 49.1788 11.7345 47.858 16.2821 49.4612C19.3261 50.5347 21.4927 52.0186 23.2908 54.0106C29.6318 61.0351 29.2574 64.307 32.1036 68.804Z" fill="#F39523"/>
<path fill-rule="evenodd" clip-rule="evenodd" d="M37.9004 42.9255C40.1446 39.3502 40.4181 37.1084 43.245 34.1765C46.1511 31.1624 48.6306 30.8812 53.6606 31.3962C49.9676 27.943 46.2107 29.3858 44.258 28.9772L43.3968 28.6782C39.4641 27.0737 44.275 17.8767 45.0287 16.4514C43.5302 18.6307 41.0557 18.9965 38.7787 27.0731C37.8367 30.4137 36.3327 39.7867 37.9004 42.9255Z" fill="#5BB146"/>
<path fill-rule="evenodd" clip-rule="evenodd" d="M28.7077 28.5942C24.624 30.2033 21.0662 27.5079 17.7236 31.4425C28.5848 29.5679 29.1358 36.545 33.6093 43.0325C34.7445 34.0095 32.5099 20.7899 26.8236 17.166C27.9329 20.7324 30.1782 23.552 28.7077 28.5942Z" fill="#168944"/>
<path fill-rule="evenodd" clip-rule="evenodd" d="M50.1669 35.7311C48.4676 36.6778 46.61 38.1851 48.3219 41.5652C49.1708 43.2413 51.6734 44.5274 54.351 43.2299C58.7912 41.0785 55.9755 32.4949 50.1669 35.7311Z" fill="#3F4096"/>
<path fill-rule="evenodd" clip-rule="evenodd" d="M20.949 43.7486C22.1497 42.0689 24.0896 41.7194 23.4937 38.4874C23.1119 36.4157 20.8046 34.4926 18.0005 35.1517C14.131 36.0609 12.0951 43.6858 20.949 43.7486Z" fill="#F4951B"/>
<path fill-rule="evenodd" clip-rule="evenodd" d="M27.4341 27.2672C29.6151 22.4762 25.2005 21.3754 23.4353 23.3089C21.6628 25.2505 23.2406 28.9716 27.4341 27.2672Z" fill="#168944"/>
<path fill-rule="evenodd" clip-rule="evenodd" d="M47.2341 27.5338C48.0764 26.5265 48.531 26.0956 48.3558 24.0616C43.3737 18.7502 40.0579 28.9098 47.2341 27.5338Z" fill="#5BB146"/>
<mask id="path-10-outside-1_271_462" maskUnits="userSpaceOnUse" x="6.09961" y="63.1103" width="59" height="20" fill="black">
<rect fill="white" x="6.09961" y="63.1103" width="59" height="20"/>
<path d="M7.09961 73.7053L12.6162 64.1103L15.3635 65.6898C16.6472 66.4279 17.5545 67.3039 18.0795 68.3177C18.4968 69.1131 18.7012 69.9681 18.6913 70.885C18.6804 71.8589 18.4384 72.7573 17.9639 73.5827C17.3611 74.6312 16.4905 75.4013 15.355 75.8882C14.481 76.27 13.6045 76.4173 12.726 76.324C11.8474 76.2307 10.9098 75.896 9.91165 75.3221L7.09961 73.7053ZM8.55836 73.3947L9.94995 74.1948C10.869 74.7232 11.6099 75.0502 12.1743 75.1736C13.1936 75.4052 14.1801 75.2829 15.1341 74.8065C15.9219 74.4136 16.5496 73.8103 17.0159 72.9993C17.5084 72.1428 17.6988 71.2563 17.587 70.3459C17.4832 69.4881 17.1902 68.7482 16.713 68.129C16.232 67.5108 15.4859 66.9095 14.4734 66.3274L13.0817 65.5273L8.55836 73.3947ZM16.2047 78.282L23.9728 69.0811L25.1507 69.4406L26.4648 81.4136L25.3107 81.0614L24.8724 77.0269L19.9462 75.5233L17.3058 78.6181L16.2047 78.282ZM20.6421 74.6939L24.7503 75.9479L24.1963 70.4631L20.6421 74.6939ZM33.6176 70.3739C34.8015 70.4148 35.8853 70.7847 36.8663 71.4833C37.7472 72.1148 38.3981 72.91 38.819 73.8717C39.1549 74.6449 39.3068 75.456 39.2775 76.3052C39.2263 77.7795 38.673 79.0452 37.62 80.1026C37.072 80.6514 36.437 81.0753 35.7204 81.3744C34.9139 81.7147 34.086 81.8688 33.2369 81.8394C32.0448 81.7981 30.9554 81.428 29.9743 80.7294C29.096 80.1036 28.4478 79.3085 28.0272 78.3412C27.6857 77.5678 27.5317 76.7345 27.5626 75.8439C27.596 74.8813 27.8766 73.9771 28.4017 73.1285C28.9588 72.234 29.7281 71.5323 30.7066 71.0262C31.6002 70.5725 32.5687 70.3541 33.6176 70.3739ZM33.5831 71.3696C32.2637 71.3239 31.1186 71.7633 30.145 72.6877C29.6925 73.1207 29.3371 73.6262 29.0788 74.2071C28.8266 74.7716 28.6907 75.3374 28.6711 75.9044C28.6294 77.1049 28.9833 78.1639 29.7296 79.0815C30.1602 79.6032 30.6774 80.0199 31.2842 80.3289C31.9129 80.647 32.5743 80.8195 33.2714 80.8436C34.2312 80.8769 35.1316 80.6257 35.9671 80.0924C36.7118 79.617 37.2848 78.9861 37.6801 78.205C37.9809 77.5978 38.1444 76.9582 38.1677 76.2833C38.1977 75.4176 38.0018 74.5994 37.5798 73.8287C37.1524 73.058 36.5422 72.4441 35.7522 71.9875C35.1005 71.6133 34.3766 71.4081 33.5831 71.3696ZM41.9634 81.2462L41.1084 74.0483L39.8441 74.1985L39.7331 73.2641L40.9974 73.1139C40.7864 71.2437 41.717 70.1856 43.7865 69.9397L43.9043 70.9319C43.8246 70.9414 43.7394 70.9515 43.6487 70.9623C42.388 71.165 41.8524 71.8418 42.0445 72.9895L44.1195 72.743L44.2305 73.6774L42.1555 73.9239L43.0105 81.1218L41.9634 81.2462ZM53.113 74.6857L46.1242 77.1948C46.3632 77.7707 46.7687 78.2367 47.3407 78.5931C47.7616 78.8565 48.2162 79.0168 48.699 79.0757C49.1819 79.1347 49.6429 79.0839 50.0858 78.9249C50.6667 78.7163 51.1519 78.3481 51.5408 77.8173C51.9295 77.2867 52.1328 76.7227 52.148 76.1261L53.2316 75.7371C53.2428 76.4564 53.0662 77.1521 52.6991 77.8249C52.1766 78.7859 51.417 79.4468 50.4194 79.8049C49.2914 80.2098 48.1825 80.1434 47.0925 79.6055C46.0601 79.0969 45.3476 78.2999 44.9586 77.2163C44.5555 76.0936 44.6047 74.9938 45.1088 73.916C45.6042 72.8471 46.4034 72.1162 47.5078 71.7196C48.4273 71.3895 49.3498 71.3789 50.2736 71.6913C50.9732 71.9282 51.5362 72.276 51.9678 72.7327C52.3993 73.1894 52.7802 73.8407 53.113 74.6857ZM51.7583 74.1723C51.3374 73.5324 50.8541 73.0707 50.304 72.7918C49.923 72.5905 49.5106 72.4739 49.0721 72.4402C48.6346 72.409 48.2217 72.4632 47.8336 72.6025C47.1068 72.8634 46.5549 73.3409 46.1794 74.0315C45.8039 74.7221 45.6873 75.4785 45.827 76.3017L51.7583 74.1723ZM54.8627 75.615L55.8366 75.0829C56.0817 75.4851 56.3626 75.7511 56.6781 75.8783C57.1371 76.0659 57.5735 76.045 57.9864 75.8194C58.3239 75.6349 58.5515 75.3529 58.6703 74.9758C58.7956 74.5761 58.7593 74.1923 58.5589 73.8256C58.3797 73.4977 58.1269 73.2889 57.7966 73.1982C57.4663 73.1074 56.9961 73.1184 56.3858 73.2311C55.6376 73.3623 55.0573 73.3799 54.6489 73.2845C54.0926 73.1438 53.6705 72.8099 53.3825 72.2829C53.0719 71.7146 53.0057 71.12 53.1836 70.4992C53.3643 69.8832 53.7412 69.4186 54.3168 69.1041C54.8657 68.8042 55.4342 68.7364 56.0234 68.897C56.6102 69.0589 57.0714 69.4124 57.4058 69.955L56.4149 70.4965C56.2059 70.166 55.9405 69.9515 55.621 69.8517C55.3276 69.7534 55.0255 69.7892 54.717 69.9577C54.4377 70.1104 54.2495 70.3489 54.1548 70.6718C54.0475 71.0238 54.0702 71.3425 54.2229 71.6218C54.4047 71.9545 54.7003 72.1493 55.1088 72.21C55.3143 72.2397 55.6623 72.2071 56.1557 72.1173C56.9457 71.9758 57.5693 71.9567 58.0202 72.0604C58.6109 72.195 59.0609 72.5451 59.3715 73.1134C59.548 73.4365 59.6622 73.784 59.7141 74.1562C59.7662 74.5283 59.745 74.8648 59.652 75.1679C59.4674 75.8112 59.0399 76.316 58.372 76.681C57.7139 77.0406 57.0579 77.1216 56.4055 76.9262C55.7517 76.7283 55.2354 76.2914 54.8627 75.615ZM63.1988 73.9291L58.8989 68.0937L57.5153 69.1132L56.9571 68.3557L58.3407 67.3361L56.6333 65.0189L57.4822 64.3934L59.1896 66.7106L60.7627 65.5515L61.3209 66.309L59.7478 67.4681L64.0477 73.3035L63.1988 73.9291Z"/>
</mask>
<path d="M7.09961 73.7053L12.6162 64.1103L15.3635 65.6898C16.6472 66.4279 17.5545 67.3039 18.0795 68.3177C18.4968 69.1131 18.7012 69.9681 18.6913 70.885C18.6804 71.8589 18.4384 72.7573 17.9639 73.5827C17.3611 74.6312 16.4905 75.4013 15.355 75.8882C14.481 76.27 13.6045 76.4173 12.726 76.324C11.8474 76.2307 10.9098 75.896 9.91165 75.3221L7.09961 73.7053ZM8.55836 73.3947L9.94995 74.1948C10.869 74.7232 11.6099 75.0502 12.1743 75.1736C13.1936 75.4052 14.1801 75.2829 15.1341 74.8065C15.9219 74.4136 16.5496 73.8103 17.0159 72.9993C17.5084 72.1428 17.6988 71.2563 17.587 70.3459C17.4832 69.4881 17.1902 68.7482 16.713 68.129C16.232 67.5108 15.4859 66.9095 14.4734 66.3274L13.0817 65.5273L8.55836 73.3947ZM16.2047 78.282L23.9728 69.0811L25.1507 69.4406L26.4648 81.4136L25.3107 81.0614L24.8724 77.0269L19.9462 75.5233L17.3058 78.6181L16.2047 78.282ZM20.6421 74.6939L24.7503 75.9479L24.1963 70.4631L20.6421 74.6939ZM33.6176 70.3739C34.8015 70.4148 35.8853 70.7847 36.8663 71.4833C37.7472 72.1148 38.3981 72.91 38.819 73.8717C39.1549 74.6449 39.3068 75.456 39.2775 76.3052C39.2263 77.7795 38.673 79.0452 37.62 80.1026C37.072 80.6514 36.437 81.0753 35.7204 81.3744C34.9139 81.7147 34.086 81.8688 33.2369 81.8394C32.0448 81.7981 30.9554 81.428 29.9743 80.7294C29.096 80.1036 28.4478 79.3085 28.0272 78.3412C27.6857 77.5678 27.5317 76.7345 27.5626 75.8439C27.596 74.8813 27.8766 73.9771 28.4017 73.1285C28.9588 72.234 29.7281 71.5323 30.7066 71.0262C31.6002 70.5725 32.5687 70.3541 33.6176 70.3739ZM33.5831 71.3696C32.2637 71.3239 31.1186 71.7633 30.145 72.6877C29.6925 73.1207 29.3371 73.6262 29.0788 74.2071C28.8266 74.7716 28.6907 75.3374 28.6711 75.9044C28.6294 77.1049 28.9833 78.1639 29.7296 79.0815C30.1602 79.6032 30.6774 80.0199 31.2842 80.3289C31.9129 80.647 32.5743 80.8195 33.2714 80.8436C34.2312 80.8769 35.1316 80.6257 35.9671 80.0924C36.7118 79.617 37.2848 78.9861 37.6801 78.205C37.9809 77.5978 38.1444 76.9582 38.1677 76.2833C38.1977 75.4176 38.0018 74.5994 37.5798 73.8287C37.1524 73.058 36.5422 72.4441 35.7522 71.9875C35.1005 71.6133 34.3766 71.4081 33.5831 71.3696ZM41.9634 81.2462L41.1084 74.0483L39.8441 74.1985L39.7331 73.2641L40.9974 73.1139C40.7864 71.2437 41.717 70.1856 43.7865 69.9397L43.9043 70.9319C43.8246 70.9414 43.7394 70.9515 43.6487 70.9623C42.388 71.165 41.8524 71.8418 42.0445 72.9895L44.1195 72.743L44.2305 73.6774L42.1555 73.9239L43.0105 81.1218L41.9634 81.2462ZM53.113 74.6857L46.1242 77.1948C46.3632 77.7707 46.7687 78.2367 47.3407 78.5931C47.7616 78.8565 48.2162 79.0168 48.699 79.0757C49.1819 79.1347 49.6429 79.0839 50.0858 78.9249C50.6667 78.7163 51.1519 78.3481 51.5408 77.8173C51.9295 77.2867 52.1328 76.7227 52.148 76.1261L53.2316 75.7371C53.2428 76.4564 53.0662 77.1521 52.6991 77.8249C52.1766 78.7859 51.417 79.4468 50.4194 79.8049C49.2914 80.2098 48.1825 80.1434 47.0925 79.6055C46.0601 79.0969 45.3476 78.2999 44.9586 77.2163C44.5555 76.0936 44.6047 74.9938 45.1088 73.916C45.6042 72.8471 46.4034 72.1162 47.5078 71.7196C48.4273 71.3895 49.3498 71.3789 50.2736 71.6913C50.9732 71.9282 51.5362 72.276 51.9678 72.7327C52.3993 73.1894 52.7802 73.8407 53.113 74.6857ZM51.7583 74.1723C51.3374 73.5324 50.8541 73.0707 50.304 72.7918C49.923 72.5905 49.5106 72.4739 49.0721 72.4402C48.6346 72.409 48.2217 72.4632 47.8336 72.6025C47.1068 72.8634 46.5549 73.3409 46.1794 74.0315C45.8039 74.7221 45.6873 75.4785 45.827 76.3017L51.7583 74.1723ZM54.8627 75.615L55.8366 75.0829C56.0817 75.4851 56.3626 75.7511 56.6781 75.8783C57.1371 76.0659 57.5735 76.045 57.9864 75.8194C58.3239 75.6349 58.5515 75.3529 58.6703 74.9758C58.7956 74.5761 58.7593 74.1923 58.5589 73.8256C58.3797 73.4977 58.1269 73.2889 57.7966 73.1982C57.4663 73.1074 56.9961 73.1184 56.3858 73.2311C55.6376 73.3623 55.0573 73.3799 54.6489 73.2845C54.0926 73.1438 53.6705 72.8099 53.3825 72.2829C53.0719 71.7146 53.0057 71.12 53.1836 70.4992C53.3643 69.8832 53.7412 69.4186 54.3168 69.1041C54.8657 68.8042 55.4342 68.7364 56.0234 68.897C56.6102 69.0589 57.0714 69.4124 57.4058 69.955L56.4149 70.4965C56.2059 70.166 55.9405 69.9515 55.621 69.8517C55.3276 69.7534 55.0255 69.7892 54.717 69.9577C54.4377 70.1104 54.2495 70.3489 54.1548 70.6718C54.0475 71.0238 54.0702 71.3425 54.2229 71.6218C54.4047 71.9545 54.7003 72.1493 55.1088 72.21C55.3143 72.2397 55.6623 72.2071 56.1557 72.1173C56.9457 71.9758 57.5693 71.9567 58.0202 72.0604C58.6109 72.195 59.0609 72.5451 59.3715 73.1134C59.548 73.4365 59.6622 73.784 59.7141 74.1562C59.7662 74.5283 59.745 74.8648 59.652 75.1679C59.4674 75.8112 59.0399 76.316 58.372 76.681C57.7139 77.0406 57.0579 77.1216 56.4055 76.9262C55.7517 76.7283 55.2354 76.2914 54.8627 75.615ZM63.1988 73.9291L58.8989 68.0937L57.5153 69.1132L56.9571 68.3557L58.3407 67.3361L56.6333 65.0189L57.4822 64.3934L59.1896 66.7106L60.7627 65.5515L61.3209 66.309L59.7478 67.4681L64.0477 73.3035L63.1988 73.9291Z" fill="#3F4096"/>
<path d="M7.09961 73.7053L12.6162 64.1103L15.3635 65.6898C16.6472 66.4279 17.5545 67.3039 18.0795 68.3177C18.4968 69.1131 18.7012 69.9681 18.6913 70.885C18.6804 71.8589 18.4384 72.7573 17.9639 73.5827C17.3611 74.6312 16.4905 75.4013 15.355 75.8882C14.481 76.27 13.6045 76.4173 12.726 76.324C11.8474 76.2307 10.9098 75.896 9.91165 75.3221L7.09961 73.7053ZM8.55836 73.3947L9.94995 74.1948C10.869 74.7232 11.6099 75.0502 12.1743 75.1736C13.1936 75.4052 14.1801 75.2829 15.1341 74.8065C15.9219 74.4136 16.5496 73.8103 17.0159 72.9993C17.5084 72.1428 17.6988 71.2563 17.587 70.3459C17.4832 69.4881 17.1902 68.7482 16.713 68.129C16.232 67.5108 15.4859 66.9095 14.4734 66.3274L13.0817 65.5273L8.55836 73.3947ZM16.2047 78.282L23.9728 69.0811L25.1507 69.4406L26.4648 81.4136L25.3107 81.0614L24.8724 77.0269L19.9462 75.5233L17.3058 78.6181L16.2047 78.282ZM20.6421 74.6939L24.7503 75.9479L24.1963 70.4631L20.6421 74.6939ZM33.6176 70.3739C34.8015 70.4148 35.8853 70.7847 36.8663 71.4833C37.7472 72.1148 38.3981 72.91 38.819 73.8717C39.1549 74.6449 39.3068 75.456 39.2775 76.3052C39.2263 77.7795 38.673 79.0452 37.62 80.1026C37.072 80.6514 36.437 81.0753 35.7204 81.3744C34.9139 81.7147 34.086 81.8688 33.2369 81.8394C32.0448 81.7981 30.9554 81.428 29.9743 80.7294C29.096 80.1036 28.4478 79.3085 28.0272 78.3412C27.6857 77.5678 27.5317 76.7345 27.5626 75.8439C27.596 74.8813 27.8766 73.9771 28.4017 73.1285C28.9588 72.234 29.7281 71.5323 30.7066 71.0262C31.6002 70.5725 32.5687 70.3541 33.6176 70.3739ZM33.5831 71.3696C32.2637 71.3239 31.1186 71.7633 30.145 72.6877C29.6925 73.1207 29.3371 73.6262 29.0788 74.2071C28.8266 74.7716 28.6907 75.3374 28.6711 75.9044C28.6294 77.1049 28.9833 78.1639 29.7296 79.0815C30.1602 79.6032 30.6774 80.0199 31.2842 80.3289C31.9129 80.647 32.5743 80.8195 33.2714 80.8436C34.2312 80.8769 35.1316 80.6257 35.9671 80.0924C36.7118 79.617 37.2848 78.9861 37.6801 78.205C37.9809 77.5978 38.1444 76.9582 38.1677 76.2833C38.1977 75.4176 38.0018 74.5994 37.5798 73.8287C37.1524 73.058 36.5422 72.4441 35.7522 71.9875C35.1005 71.6133 34.3766 71.4081 33.5831 71.3696ZM41.9634 81.2462L41.1084 74.0483L39.8441 74.1985L39.7331 73.2641L40.9974 73.1139C40.7864 71.2437 41.717 70.1856 43.7865 69.9397L43.9043 70.9319C43.8246 70.9414 43.7394 70.9515 43.6487 70.9623C42.388 71.165 41.8524 71.8418 42.0445 72.9895L44.1195 72.743L44.2305 73.6774L42.1555 73.9239L43.0105 81.1218L41.9634 81.2462ZM53.113 74.6857L46.1242 77.1948C46.3632 77.7707 46.7687 78.2367 47.3407 78.5931C47.7616 78.8565 48.2162 79.0168 48.699 79.0757C49.1819 79.1347 49.6429 79.0839 50.0858 78.9249C50.6667 78.7163 51.1519 78.3481 51.5408 77.8173C51.9295 77.2867 52.1328 76.7227 52.148 76.1261L53.2316 75.7371C53.2428 76.4564 53.0662 77.1521 52.6991 77.8249C52.1766 78.7859 51.417 79.4468 50.4194 79.8049C49.2914 80.2098 48.1825 80.1434 47.0925 79.6055C46.0601 79.0969 45.3476 78.2999 44.9586 77.2163C44.5555 76.0936 44.6047 74.9938 45.1088 73.916C45.6042 72.8471 46.4034 72.1162 47.5078 71.7196C48.4273 71.3895 49.3498 71.3789 50.2736 71.6913C50.9732 71.9282 51.5362 72.276 51.9678 72.7327C52.3993 73.1894 52.7802 73.8407 53.113 74.6857ZM51.7583 74.1723C51.3374 73.5324 50.8541 73.0707 50.304 72.7918C49.923 72.5905 49.5106 72.4739 49.0721 72.4402C48.6346 72.409 48.2217 72.4632 47.8336 72.6025C47.1068 72.8634 46.5549 73.3409 46.1794 74.0315C45.8039 74.7221 45.6873 75.4785 45.827 76.3017L51.7583 74.1723ZM54.8627 75.615L55.8366 75.0829C56.0817 75.4851 56.3626 75.7511 56.6781 75.8783C57.1371 76.0659 57.5735 76.045 57.9864 75.8194C58.3239 75.6349 58.5515 75.3529 58.6703 74.9758C58.7956 74.5761 58.7593 74.1923 58.5589 73.8256C58.3797 73.4977 58.1269 73.2889 57.7966 73.1982C57.4663 73.1074 56.9961 73.1184 56.3858 73.2311C55.6376 73.3623 55.0573 73.3799 54.6489 73.2845C54.0926 73.1438 53.6705 72.8099 53.3825 72.2829C53.0719 71.7146 53.0057 71.12 53.1836 70.4992C53.3643 69.8832 53.7412 69.4186 54.3168 69.1041C54.8657 68.8042 55.4342 68.7364 56.0234 68.897C56.6102 69.0589 57.0714 69.4124 57.4058 69.955L56.4149 70.4965C56.2059 70.166 55.9405 69.9515 55.621 69.8517C55.3276 69.7534 55.0255 69.7892 54.717 69.9577C54.4377 70.1104 54.2495 70.3489 54.1548 70.6718C54.0475 71.0238 54.0702 71.3425 54.2229 71.6218C54.4047 71.9545 54.7003 72.1493 55.1088 72.21C55.3143 72.2397 55.6623 72.2071 56.1557 72.1173C56.9457 71.9758 57.5693 71.9567 58.0202 72.0604C58.6109 72.195 59.0609 72.5451 59.3715 73.1134C59.548 73.4365 59.6622 73.784 59.7141 74.1562C59.7662 74.5283 59.745 74.8648 59.652 75.1679C59.4674 75.8112 59.0399 76.316 58.372 76.681C57.7139 77.0406 57.0579 77.1216 56.4055 76.9262C55.7517 76.7283 55.2354 76.2914 54.8627 75.615ZM63.1988 73.9291L58.8989 68.0937L57.5153 69.1132L56.9571 68.3557L58.3407 67.3361L56.6333 65.0189L57.4822 64.3934L59.1896 66.7106L60.7627 65.5515L61.3209 66.309L59.7478 67.4681L64.0477 73.3035L63.1988 73.9291Z" stroke="#3F4096" mask="url(#path-10-outside-1_271_462)"/>
</svg>
