<?xml version="1.0" encoding="UTF-8" standalone="no"?>
<!-- Created with Inkscape (http://www.inkscape.org/) -->

<svg
   version="1.1"
   id="svg2"
   width="410"
   height="147"
   viewBox="0 0 1128 525.33331"
   sodipodi:docname="bitcoininsider-logo-vertical (1).eps"
   xmlns:inkscape="http://www.inkscape.org/namespaces/inkscape"
   xmlns:sodipodi="http://sodipodi.sourceforge.net/DTD/sodipodi-0.dtd"
   xmlns="http://www.w3.org/2000/svg"
   xmlns:svg="http://www.w3.org/2000/svg">
  <defs
     id="defs6" />
  <sodipodi:namedview
     id="namedview4"
     pagecolor="#ffffff"
     bordercolor="#000000"
     borderopacity="0.25"
     inkscape:showpageshadow="2"
     inkscape:pageopacity="0.0"
     inkscape:pagecheckerboard="0"
     inkscape:deskcolor="#d1d1d1" />
  <g
     id="g8"
     inkscape:groupmode="layer"
     inkscape:label="ink_ext_XXXXXX"
     transform="matrix(1.3333333,0,0,-1.3333333,0,525.33333)">
    <g
       id="g10"
       transform="scale(0.1)">
      <path
         d="m 4126.56,3932.62 c -17.65,-0.9 -36.91,-1.57 -42.65,-1.57 -5.94,0 -11.92,-0.89 -13.25,-1.99 -1.56,-1.09 -16.99,-3.32 -34.68,-4.84 -17.66,-1.56 -33.36,-3.75 -34.69,-4.88 -1.56,-1.33 -5.31,-1.76 -8.4,-1.33 -3.09,0.66 -6.17,0.47 -6.64,-0.67 -0.66,-0.86 -8.16,-2.42 -16.56,-3.28 -8.6,-0.9 -16.14,-2.22 -16.8,-3.32 -0.43,-0.9 -2.66,-1.13 -4.41,-0.47 -1.76,0.67 -5.51,0.24 -8.17,-1.09 -2.65,-1.33 -11.72,-3.52 -20.35,-5.08 -8.36,-1.33 -16.56,-3.51 -17.89,-4.41 -1.33,-1.1 -4.18,-1.57 -6.17,-0.67 -1.99,0.67 -3.56,0.43 -3.56,-0.66 0,-1.33 -7.07,-3.56 -15.66,-4.88 -8.63,-1.53 -18.36,-4.18 -21.45,-5.94 -3.32,-1.76 -7.93,-3.09 -10.39,-3.09 -2.42,0 -7.26,-1.56 -10.82,-3.32 -3.51,-1.99 -6.83,-2.89 -7.5,-2.22 -0.66,0.66 -2.22,0.23 -3.55,-0.86 -1.33,-0.9 -7.27,-3.13 -13.48,-4.46 -5.94,-1.52 -12.15,-3.75 -13.67,-5.07 -1.56,-1.1 -3.79,-1.53 -5.08,-0.67 -1.13,0.67 -2.89,0 -3.55,-1.76 -0.67,-1.75 -4.18,-3.08 -7.74,-3.32 -3.75,0 -8.83,-1.52 -11.48,-3.32 -2.66,-1.75 -7.5,-3.75 -10.82,-4.41 -3.32,-0.86 -8.83,-2.66 -12.15,-4.18 -3.32,-1.33 -6.64,-2.66 -7.3,-2.89 -4.65,-1.52 -11.25,-4.42 -18.79,-7.74 -4.85,-2.18 -12.58,-5.27 -17,-6.83 -4.64,-1.56 -8.39,-3.75 -8.39,-4.65 0,-0.86 -0.67,-1.52 -1.57,-1.33 -1.09,0.24 -4.65,-0.86 -7.93,-2.19 -3.55,-1.56 -7.3,-2.65 -8.4,-2.65 -1.13,0 -2.65,-1.56 -3.32,-3.32 -0.89,-1.76 -2.65,-3.32 -4.21,-3.32 -1.53,0 -6.61,-1.76 -11.25,-3.75 -4.89,-1.99 -9.07,-3.99 -9.73,-3.99 -9.73,-3.32 -19.88,-9.06 -19.88,-11.05 0,-1.53 -3.32,-3.28 -7.07,-4.18 -3.99,-0.9 -11.06,-3.99 -15.47,-6.84 -4.65,-3.12 -9.3,-5.54 -10.63,-5.54 -1.09,0 -2.18,-1.1 -2.18,-2.43 0,-1.09 -0.9,-1.75 -2,-1.09 -0.9,0.66 -3.75,-0.9 -5.97,-3.32 -2.19,-2.42 -5.32,-3.75 -6.84,-3.32 -1.56,0.66 -4.88,-0.43 -7.07,-2.66 -4.41,-4.18 -13.48,-9.92 -23.87,-14.8 -3.98,-1.76 -7.3,-4.42 -7.3,-5.51 0,-1.33 -1.33,-2.23 -2.66,-2.23 -1.52,0 -6.83,-3.08 -11.48,-6.64 -4.85,-3.75 -9.73,-6.6 -10.59,-6.6 -1.09,0 -5.31,-2.42 -9.3,-5.54 -3.98,-3.09 -8.39,-5.51 -9.72,-5.51 -1.53,0 -2.62,-1.33 -2.62,-3.09 0,-1.8 -2.23,-3.98 -4.88,-4.88 -2.85,-0.86 -10.59,-5.51 -17.23,-10.59 -6.64,-5.08 -13.9,-9.96 -15.9,-10.82 -2.46,-0.9 -3.98,-3.79 -3.98,-7.07 0,-3.12 -1.09,-5.54 -2.42,-5.54 -1.14,0 -1.57,1.13 -0.9,2.22 3.75,5.98 -5.74,1.1 -14.81,-7.73 -5.74,-5.55 -11.25,-9.96 -12.38,-9.96 -1.09,0 -5.08,-2.86 -8.4,-6.41 -3.51,-3.32 -7.5,-6.6 -9.06,-7.07 -10.59,-3.52 -164.14,-157.07 -164.14,-164.38 0,-0.89 -3.56,-5.5 -7.74,-10.15 -4.21,-4.88 -7.73,-10.16 -7.73,-11.95 0,-1.76 -1.33,-3.29 -2.66,-3.29 -3.32,0 -17.22,-16.13 -17.22,-19.68 0,-1.33 -0.9,-2.43 -2.23,-2.43 -1.09,0 -2.19,-0.89 -2.19,-2.22 0,-1.1 -1.32,-3.99 -3.12,-5.94 -1.76,-2.23 -6.84,-8.4 -11.25,-13.94 -4.65,-5.32 -9.06,-12.15 -10.16,-14.81 -1.09,-2.85 -2.89,-5.08 -4.22,-5.08 -1.09,0 -2.18,-1.99 -2.18,-4.18 0,-2.46 -0.67,-4.65 -1.76,-5.07 -2.46,-1.14 -16.6,-19.46 -14.81,-19.46 0.67,0 -0.66,-2.65 -3.12,-5.74 -2.66,-3.32 -4.61,-7.07 -4.61,-8.63 0,-1.53 -1.56,-3.32 -3.32,-4.18 -1.8,-0.67 -3.32,-2.23 -3.32,-3.56 0,-1.33 -2.89,-6.83 -6.64,-12.15 -3.52,-5.31 -6.6,-10.58 -6.6,-11.71 0,-1.33 -0.67,-2.66 -1.57,-3.09 -2.65,-1.09 -9.49,-14.14 -9.49,-18.13 0,-1.99 -0.9,-3.51 -2.22,-3.51 -1.1,0 -2.19,-1.33 -2.19,-3.09 0,-1.56 -1.56,-4.22 -3.32,-5.74 -3.32,-2.89 -18.79,-32.27 -18.79,-35.82 0,-1.09 -2.66,-5.74 -5.74,-10.59 -3.75,-5.74 -5.32,-9.96 -4.22,-13.28 0.9,-3.08 0.47,-4.41 -1.33,-3.94 -2.42,0.66 -4.84,-3.32 -14.14,-22.54 -1.29,-3.13 -3.95,-9.73 -5.51,-14.81 -1.56,-5.31 -3.75,-9.53 -4.84,-9.53 -1.14,0 -1.33,-0.86 -0.67,-2.18 0.67,-1.1 0.43,-2.23 -0.66,-2.23 -1.13,0 -2.66,-3.09 -3.56,-7.07 -0.66,-3.75 -3.32,-10.82 -5.5,-15.9 -7.54,-16.33 -9.96,-22.3 -10.39,-24.53 0,-1.09 -1.33,-4.85 -2.66,-7.93 -1.33,-3.32 -3.09,-9.53 -3.75,-13.95 -0.9,-4.41 -2.23,-7.93 -3.09,-7.93 -0.89,0 -2.89,-4.64 -4.41,-10.39 -1.56,-5.97 -3.32,-12.15 -3.98,-13.94 -0.9,-1.76 -1.14,-4.61 -0.9,-5.94 0.23,-1.56 -0.43,-2.89 -1.53,-2.89 -1.32,0 -3.55,-6.41 -5.11,-14.34 -1.53,-7.96 -3.52,-14.37 -4.42,-14.37 -1.76,0 -5.27,-19.22 -4.61,-25.63 0.2,-2.65 -0.9,-5.31 -2.89,-5.97 -1.76,-0.9 -2.65,-2.89 -1.99,-4.85 0.9,-1.79 0.23,-4.64 -1.09,-6.4 -1.33,-1.56 -3.75,-10.63 -5.08,-19.92 -1.56,-9.26 -3.56,-16.76 -4.42,-16.76 -2.65,0 -1.99,-7.74 0.86,-10.63 2,-1.99 1.76,-2.65 -0.86,-2.65 -2.65,0 -3.98,-3.32 -5.07,-15.47 -0.9,-8.6 -2.46,-15.9 -3.32,-16.56 -1.14,-0.67 -1.33,-3.09 -0.67,-5.51 0.67,-2.46 0.2,-5.74 -1.13,-7.31 -1.1,-1.33 -3.52,-16.36 -5.08,-32.93 -1.52,-16.79 -3.52,-30.47 -4.61,-30.47 -0.9,0 -1.33,-5.74 -0.9,-12.61 0.43,-7.5 -0.23,-14.14 -1.75,-15.9 -3.99,-4.84 -3.56,-214.77 0.42,-219.61 2,-2.46 2.9,-7.73 2.23,-15.94 -0.23,-6.6 0,-12.15 1.09,-12.15 0.86,0 1.53,-3.32 1.53,-7.07 0,-3.98 1.13,-17.46 2.65,-29.8 2,-17.03 3.32,-22.77 5.75,-22.77 2.22,0 2.89,-1.76 1.99,-5.98 -1.33,-6.6 5.08,-51.68 7.54,-53.67 1.33,-1.1 1.95,-5.55 5.74,-31.37 0.66,-4.65 1.99,-8.4 2.85,-8.4 1.1,0 3.09,-7.07 4.65,-15.7 2.23,-12.58 3.75,-16.33 8.83,-19.88 3.32,-2.19 7.54,-4.18 9.49,-4.18 1.99,0 3.56,-0.9 3.56,-2.23 0,-1.09 1.99,-2.23 4.41,-2.23 2.42,0 4.41,-1.09 4.41,-2.42 0,-2.42 -4.64,-1.52 -17.46,3.75 -4.18,1.8 -7.93,2.66 -8.59,1.99 -0.67,-0.66 -0.24,-1.09 1.09,-1.09 1.33,0 3.75,-6.41 5.32,-14.38 1.52,-7.93 3.74,-14.33 4.64,-14.33 1.1,0 1.76,-1.33 1.53,-2.89 -0.24,-1.33 0,-4.18 0.66,-5.98 0.67,-1.76 2.42,-7.69 4.22,-13.24 1.52,-5.51 3.52,-11.06 4.41,-12.15 0.86,-1.33 2.86,-7.3 4.42,-13.24 1.33,-6.21 3.98,-12.62 5.51,-14.61 1.75,-1.76 3.75,-6.6 4.41,-10.39 0.9,-3.95 2.89,-7.07 4.41,-7.07 2,0 3.13,-2.62 3.13,-8.17 0,-4.64 1.99,-11.72 4.61,-15.9 2.46,-3.98 3.98,-7.73 3.32,-8.39 -0.67,-0.67 1.13,-4.85 3.98,-9.3 2.89,-4.41 4.65,-9.26 4.22,-10.59 -1.56,-4.64 1.95,-3.32 9.03,3.32 l 6.87,5.94 -5.98,-6.83 c -7.3,-7.93 -7.5,-9.73 -1.75,-16.8 2.18,-3.09 3.75,-6.17 3.08,-6.84 -0.66,-0.66 0.24,-3.32 1.99,-5.97 l 3.09,-4.65 1.33,5.11 c 0.9,2.62 1.99,4.42 2.42,3.76 0.66,-0.67 0,-4.22 -1.33,-7.97 -2.19,-6.18 -1.99,-7.97 3.32,-15.9 3.32,-4.89 5.98,-10.16 6.21,-11.72 0,-1.56 2.85,-7.74 6.41,-13.91 3.51,-5.97 8.4,-14.61 10.35,-18.79 2.23,-4.21 6.88,-11.95 10.2,-17.03 3.32,-5.27 5.93,-10.58 5.93,-12.15 0,-1.52 2.46,-5.74 5.75,-9.06 3.12,-3.32 4.88,-7.07 4.21,-8.16 -0.66,-1.33 -0.23,-2.23 1.1,-2.23 1.33,0 3.55,-2.85 4.65,-6.6 1.32,-3.56 3.75,-6.64 5.5,-6.64 1.8,0 3.13,-1.33 3.13,-2.85 0,-4.46 6.6,-17.03 8.83,-17.03 1.09,0 2.65,-2.23 3.51,-4.85 0.9,-2.89 3.75,-8.2 6.64,-11.95 2.89,-3.75 5.32,-7.5 5.32,-8.16 0,-0.9 6.4,-9.97 14.33,-20.12 7.97,-10.16 14.38,-19.46 14.38,-20.55 0,-0.86 4.41,-6.64 9.96,-12.58 5.51,-5.74 9.92,-11.05 9.92,-11.48 0,-0.24 2.89,-3.99 6.64,-7.97 3.52,-3.98 6.64,-8.16 6.64,-9.49 0,-1.33 11.02,-14.38 24.3,-29.18 13.47,-14.81 24.29,-28.05 24.29,-29.18 0,-1.29 0.9,-2.42 1.76,-2.42 1.1,0 14.81,-13.01 30.51,-28.95 15.66,-16.13 30.27,-30.7 32.46,-32.69 2.23,-2 8.17,-7.27 13.28,-11.92 36.88,-33.36 58.75,-52.38 60.51,-52.38 1.13,0 4.45,-2.19 7.07,-4.65 4.22,-3.94 5.55,-4.18 7.07,-1.76 3.32,5.08 1.13,9.73 -4.61,10.39 -6.21,0.9 -11.48,4.65 -9.96,6.84 0.43,0.9 4.41,1.13 8.83,0.66 5.55,-0.66 9.06,-2.65 11.48,-6.4 3.56,-5.28 3.56,-6.17 0,-11.92 l -3.51,-6.4 10.39,-7.74 c 5.74,-4.22 11.91,-9.06 13.9,-11.05 2,-1.76 4.22,-3.32 5.08,-3.32 0.67,0 7.97,-5.08 15.71,-11.06 7.73,-6.17 15,-11.01 15.66,-11.01 0.9,0 4.88,-2.46 8.87,-5.55 3.98,-3.09 8.16,-5.51 9.26,-5.51 1.13,0 3.32,-1.56 4.88,-3.32 1.52,-1.99 7.26,-5.55 12.58,-7.97 5.07,-2.42 9.49,-5.27 9.49,-6.4 0,-1.1 2.22,-2.66 4.88,-3.52 2.85,-0.9 6.17,-3.08 7.74,-5.08 2.42,-3.32 2.65,-3.12 2.85,0.43 0,2.23 1.79,3.75 4.41,3.75 4.88,0 5.98,-3.32 1.8,-5.31 -3.56,-1.33 2.65,-6.6 14.8,-12.81 11.92,-5.74 24.73,-12.81 35.35,-19.42 4.85,-3.12 9.5,-5.31 10.59,-4.88 0.9,0.24 1.56,-0.43 1.56,-1.33 0,-1.09 3.99,-3.32 8.83,-4.84 4.84,-1.56 8.83,-3.56 8.83,-4.22 0,-0.86 5.08,-3.32 11.05,-5.74 6.18,-2.42 11.06,-4.85 11.06,-5.74 0,-0.9 2.65,-2.19 6.17,-3.09 6.64,-1.56 20.35,-7.5 36.48,-15.7 12.15,-6.18 14.77,-6.6 14.77,-2 0,1.8 1.13,3.32 2.46,3.32 1.33,0 1.99,-1.99 1.33,-4.17 -1.13,-4.42 2.66,-7.31 9.92,-7.74 1.99,-0.23 5.08,-1.56 6.41,-2.89 1.56,-1.52 4.41,-2.85 6.4,-2.85 1.76,0 6.88,-1.76 11.06,-4.22 4.22,-2.19 11.29,-4.84 15.47,-5.74 4.18,-0.86 9.06,-2.66 10.62,-3.75 1.29,-1.33 2.62,-1.56 2.62,-0.67 0,0.9 1.33,0.67 2.66,-0.43 1.56,-1.09 7.3,-3.32 12.81,-4.88 5.54,-1.76 13.04,-4.18 16.6,-5.74 3.75,-1.76 10.35,-3.52 15,-4.42 4.41,-0.85 8.16,-2.42 8.16,-3.32 0,-0.85 2.66,-1.09 5.78,-0.42 3.52,0.66 6.41,-0.24 7.5,-2 1.1,-1.52 5.51,-2.85 9.73,-2.85 4.42,0 7.93,-0.9 7.93,-1.8 0,-0.85 2.46,-1.75 5.55,-1.75 3.08,0 5.51,-0.9 5.51,-1.76 0,-1.1 9.72,-3.56 21.64,-5.74 11.72,-2 23.67,-4.89 26.32,-6.21 3.75,-1.76 5.75,-1.76 8.4,0.46 2.62,2.19 3.28,2.19 3.28,-0.66 0,-2.42 3.79,-3.75 15.47,-4.88 8.64,-0.86 15.47,-2.42 15.47,-3.52 0,-1.09 3.32,-1.56 7.31,-1.09 3.75,0.43 8.16,0 9.25,-0.9 1.33,-1.09 14.61,-3.09 29.85,-4.41 15.23,-1.57 29.61,-3.56 32.03,-4.65 18.36,-8.17 261.17,-7.97 280.62,0.23 2.43,1.1 16.8,3.09 32.04,4.42 15,1.32 28.94,3.32 30.93,4.41 1.76,0.9 5.94,1.33 9.49,0.9 3.33,-0.24 5.98,0.19 5.98,1.09 0,0.86 9.06,2.85 20.31,4.42 11.06,1.56 21.88,3.75 23.64,4.64 1.99,1.1 13.04,3.52 24.53,5.51 11.48,1.99 24.1,5.08 27.62,6.64 3.75,1.53 10.62,3.75 15.46,4.42 4.89,0.9 9.96,2.42 11.06,3.51 1.33,0.9 9.73,3.32 18.79,5.31 9.06,2 19.22,4.89 22.54,6.65 3.08,1.75 6.83,3.32 7.93,3.32 1.32,0 5.07,1.09 8.63,2.65 3.32,1.33 7.5,2.19 9.06,1.96 1.33,-0.2 2.66,0.46 2.66,1.56 0,1.33 3.75,2.89 8.4,3.75 4.41,0.66 10.15,2.89 12.81,4.41 2.42,1.56 9.06,4.22 14.34,5.55 9.29,2.42 16.36,5.31 40.66,16.8 6.17,2.85 11.95,5.27 13.05,5.27 1.09,0 3.75,1.33 5.5,2.89 2,1.56 7.74,4.18 13.05,5.98 5.08,1.52 9.26,3.75 9.26,4.84 0,0.9 0.66,1.56 1.8,1.33 1.52,-0.43 16.56,5.74 22.53,9.49 1.76,1.13 4.85,2.66 6.61,3.55 13.28,5.51 28.28,13.48 30.93,16.14 0.67,0.66 4.65,2.85 8.87,5.08 4.18,2.18 11.68,6.4 16.56,9.25 4.85,2.89 12.82,7.54 17.66,10.2 4.88,2.62 14.61,8.59 21.44,13.24 7.08,4.85 13.72,8.59 15.04,8.59 1.1,0 2.19,1.57 2.19,3.56 0,1.76 1.09,2.66 2.23,1.99 1.33,-0.9 5.74,1.1 9.92,4.42 4.22,3.08 7.73,5.07 7.73,4.41 0,-1.76 20.36,14.57 22.78,18.12 0.86,1.57 3.08,2.23 4.84,1.57 1.76,-0.9 3.32,-0.24 3.32,1.09 0,1.33 3.09,3.99 6.84,5.74 4.22,2.43 6.4,4.85 5.54,6.84 -0.66,1.99 0.2,3.09 3.09,3.09 5.51,0 21.88,11.28 22.11,15.03 0,1.33 1.99,2.66 4.18,2.66 2.42,0 6.17,2.42 8.63,5.51 2.42,3.12 5.28,5.55 6.41,5.55 0.86,0 9.92,7.5 19.88,16.56 9.92,9.06 18.56,16.56 19.22,16.56 0.86,0 5.74,4.41 10.82,9.96 5.31,5.51 10.82,9.92 12.38,9.92 1.33,0 3.52,2.42 4.65,5.55 1.1,3.09 3.28,5.51 4.85,5.51 3.75,0 54.8,51.05 54.8,54.57 0,1.56 1.52,2.89 3.32,2.89 1.76,0 3.28,1.52 3.28,3.51 0,3.32 5.12,9.73 7.54,9.73 1.52,0 9.92,8.16 10.82,10.63 0.24,0.86 1.09,1.32 2.19,0.86 0.9,-0.2 1.56,0.66 1.56,2.22 0,1.53 4.22,7.07 9.3,12.38 6.17,5.94 8.59,9.93 7.07,11.02 -3.79,2.46 -6.21,11.48 -3.13,11.48 1.57,0 3.13,-1.95 3.79,-4.41 0.67,-2.42 1.99,-4.41 2.62,-4.41 2.23,0 11.29,9.72 11.29,11.95 0,1.09 2.42,3.75 5.51,6.17 3.12,2.42 5.54,5.31 5.54,6.41 0,2.65 7.5,13.24 16.8,23.2 3.75,4.18 8.16,10.39 9.92,13.71 1.56,3.32 6.64,10.39 11.06,15.9 4.41,5.51 9.96,13.05 12.15,16.8 2.42,3.98 7.5,11.72 11.48,17.22 3.75,5.75 7.07,11.25 7.07,12.58 0,1.13 1.56,2.66 3.55,3.56 1.76,0.66 2.86,2.42 2.19,3.98 -0.43,1.52 0.9,4.61 3.32,6.84 2.23,1.99 4.22,5.74 4.22,7.97 0,2.18 1.52,4.6 3.28,5.27 2.23,0.9 2.66,3.32 1.8,7.73 -0.9,4.22 -0.24,6.41 1.52,6.41 1.57,0 2.23,-1.52 1.33,-3.75 -0.86,-2.42 0.9,-1.52 4.22,2.23 3.09,3.32 5.51,7.73 5.51,9.49 0,1.99 2.42,6.64 5.31,10.39 2.85,3.98 7.93,13.05 11.48,20.31 3.52,7.31 7.5,13.95 8.83,14.81 1.33,0.89 3.75,5.74 5.31,11.05 1.76,5.31 4.42,10.16 5.98,11.29 1.52,0.86 3.32,5.08 4.18,9.26 0.66,4.22 2.23,7.73 3.56,7.73 1.09,0 1.32,1.1 0.66,2.23 -0.66,1.33 -0.23,2.19 1.33,2.19 1.76,0 1.76,0.89 -0.24,3.32 -2.22,2.65 -2.22,3.32 0.9,3.32 1.76,0 3.95,2.42 4.85,5.5 0.66,3.09 1.99,5.55 2.89,5.55 0.86,0 3.28,5.51 5.5,12.15 2,6.6 4.65,12.58 5.75,13.24 1.32,0.9 2.22,3.75 2.22,6.64 0,2.85 1.1,5.98 2.19,6.64 1.33,0.67 2.23,3.28 2.23,5.75 0,2.18 0.86,4.18 2.18,4.18 1.14,0 3.09,4.21 4.65,9.49 1.33,5.08 4.42,13.47 6.64,18.79 2.43,5.07 4.85,12.38 5.75,15.89 0.66,3.79 2.18,6.65 3.32,6.65 1.32,0 1.75,1.56 1.09,3.32 -0.9,1.75 -0.66,3.75 0.43,4.18 0.9,0.66 3.09,6.64 4.65,13.47 1.56,6.64 3.55,12.15 4.41,12.15 0.9,0 2.89,6.45 4.42,14.38 1.56,7.96 3.55,15.03 4.64,15.7 3.32,1.99 0,5.27 -3.98,3.75 -2.85,-1.1 -3.32,-0.43 -2.19,2.42 0.86,2.23 1.53,5.31 1.53,7.07 0,1.76 1.13,3.09 2.22,3.09 1.33,0 2.19,-1.53 1.76,-3.52 -0.43,-2.23 0.43,-4.22 1.76,-4.65 1.56,-0.43 3.55,5.75 5.31,15.9 1.56,9.06 3.56,16.56 4.65,16.56 0.86,0 2.85,7.54 4.41,16.61 1.33,9.25 3.32,17.22 4.18,17.65 1.14,0.67 1.33,3.09 0.67,5.55 -0.67,2.42 0,5.94 1.56,7.73 1.99,2.42 2.23,3.95 0.23,6.41 -1.79,2.19 -1.79,3.51 0.67,5.51 1.52,1.33 3.75,8.63 4.41,16.36 0.86,7.5 2.42,14.57 3.52,15.9 0.9,1.1 3.32,17.66 5.54,36.45 2,18.79 4.61,36.25 5.94,38.9 1.13,2.43 2.23,20.55 2.46,39.96 0.2,19.69 1.1,35.16 2.19,34.5 4.65,-2.89 -0.43,191.76 -5.31,197.07 -1.1,1.13 -1.96,5.54 -1.96,10.15 0,13.05 -6.87,69.18 -8.86,71.61 -0.86,1.32 -2.85,11.05 -4.42,22.1 -1.32,10.83 -3.32,20.32 -4.18,20.98 -1.13,0.67 -3.55,12.38 -5.74,26.06 -2.23,13.51 -4.65,24.76 -5.74,24.76 -0.9,0 -2.89,7.07 -4.45,15.47 -1.53,8.63 -3.52,15.47 -4.85,15.47 -1.09,0 -1.56,1.52 -0.9,3.32 0.9,1.76 0.47,3.75 -0.43,4.41 -1.09,0.43 -2.65,5.32 -3.32,10.59 -0.86,5.08 -2.85,12.15 -4.64,15.47 -1.53,3.08 -4.61,12.81 -6.84,21.44 -1.99,8.4 -4.41,15.47 -5.31,15.47 -0.86,0 -2.42,3.52 -3.32,7.97 -0.67,4.42 -3.28,11.68 -5.75,16.09 -2.18,4.46 -4.18,9.3 -4.18,10.86 0,1.53 -1.09,5.08 -2.65,7.74 -1.56,2.62 -2.85,5.94 -2.85,7.07 -0.47,3.51 -8.64,22.5 -20.12,46.37 -2.89,6.21 -5.98,13.71 -6.64,17.26 -0.66,3.28 -2.19,5.94 -3.52,5.94 -1.13,0 -1.32,1.13 -0.66,2.23 0.66,1.32 0.43,2.18 -0.47,2.18 -1.09,0 -3.32,3.79 -4.84,8.4 -1.76,4.42 -3.75,8.63 -4.42,9.3 -0.9,0.66 -3.32,5.51 -5.74,11.05 -2.46,5.51 -4.88,10.39 -5.55,11.06 -1.52,1.52 -8.16,13.24 -12.14,21.4 -1.76,3.75 -4.18,7.74 -5.51,8.4 -1.33,0.9 -1.76,2.23 -1.1,3.32 0.63,0.9 -0.46,2.89 -2.22,4.42 -1.76,1.56 -3.32,3.98 -3.32,5.54 0,1.76 -3.32,7.5 -7.5,12.82 -4.22,5.5 -7.07,10.58 -6.41,11.25 0.66,0.66 -1.76,4.84 -5.31,9.49 -3.75,4.65 -8.4,11.95 -10.59,16.13 -2.22,4.22 -6.87,11.29 -10.19,15.7 -3.52,4.42 -5.75,8.6 -4.85,9.5 0.67,0.66 -0.23,1.32 -2.22,1.32 -2.19,0 -3.75,1.76 -3.75,4.42 0,2.42 -1.53,5.08 -3.32,5.74 -1.76,0.9 -3.32,2.42 -3.32,3.99 0,1.32 -2.86,5.97 -6.61,10.15 -3.55,4.22 -6.4,8.83 -6.64,9.96 0,1.33 -1.99,3.52 -4.41,5.08 -2.42,1.52 -4.41,4.18 -4.41,5.94 0,1.8 -2,4.45 -4.42,5.97 -2.46,1.57 -4.41,3.75 -4.41,5.08 0,1.33 -4.46,7.31 -9.96,13.71 -5.51,6.18 -9.93,12.39 -9.93,13.48 0,1.33 -2.46,4.18 -5.54,6.64 -3.09,2.42 -5.51,5.27 -5.51,6.6 0,1.14 -3.98,5.74 -8.87,10.2 -4.84,4.41 -8.82,8.83 -8.82,9.69 0,3.78 -14.81,15.93 -19.46,15.93 -2.62,0 -4.84,1.1 -4.84,2.19 0,1.33 1.56,2.23 3.32,2.23 1.76,0 3.32,0.43 3.32,1.09 0,2.23 -18.56,17.7 -20.55,17.03 -2.46,-0.66 -8.2,6.6 -6.87,8.6 1.32,2.42 -14.14,17.03 -16.14,15.27 -0.86,-0.9 -3.51,0.19 -5.5,2.42 -2.23,2.19 -2.89,4.65 -1.76,5.27 2.42,1.57 -13.71,16.61 -17.7,16.61 -1.52,0 -2.18,1.32 -1.75,2.85 0.89,3.32 -19.89,23.86 -21.65,21.21 -1.99,-3.32 -5.31,-2.19 -5.31,1.99 0,2.23 -3.98,7.74 -8.63,12.38 -7.93,7.74 -8.83,8.17 -11.02,4.18 -1.99,-3.51 -2.22,-3.51 -2.46,1.33 0,5.08 -9.72,17.89 -13.67,17.89 -0.9,0 -3.98,1.99 -6.64,4.65 -11.05,9.96 -32.69,26.29 -34.45,26.29 -1.33,0 -2.66,1.56 -3.56,3.32 -0.66,1.76 -3.75,4.41 -6.83,5.55 -3.09,1.09 -5.55,3.08 -5.55,4.41 0,1.09 -1.09,2.19 -2.42,2.19 -1.33,0 -6.17,3.08 -10.82,6.64 -4.65,3.75 -9.49,6.64 -10.82,6.64 -1.14,0 -3.32,1.99 -4.65,4.41 -1.33,2.43 -4.22,4.42 -6.64,4.42 -2.19,0 -4.42,0.9 -4.85,1.76 -1.09,2.65 -21.87,18.12 -24.29,18.12 -1.33,0 -5.31,2.23 -9.07,4.84 -3.98,2.89 -9.06,4.65 -11.48,4.22 -2.46,-0.23 -3.79,0 -2.89,0.9 2.23,2.19 -21.45,18.56 -32.93,22.97 -5.27,1.76 -9.49,4.18 -9.49,5.08 0,0.86 -1.1,1.76 -2.42,1.76 -1.33,0 -5.32,1.99 -8.83,4.64 -3.56,2.43 -7.31,3.75 -8.63,3.09 -1.1,-0.66 -2.23,-0.23 -2.23,0.9 0,1.33 -1.1,2.42 -2.62,2.42 -1.33,0 -5.74,2.42 -9.72,5.51 -3.99,3.12 -8.64,5.55 -10.16,5.55 -1.56,0 -5.78,1.99 -9.53,4.41 -3.52,2.42 -7.93,4.41 -9.49,4.41 -1.57,0 -6.65,2.43 -11.06,5.51 -4.41,3.13 -9.73,5.55 -11.72,5.55 -1.95,0 -4.84,1.52 -6.4,3.32 -1.33,1.76 -3.29,3.08 -3.95,2.85 -0.9,-0.2 -5.31,1.33 -10.19,3.32 -4.61,1.99 -9.69,3.75 -11.26,3.75 -1.75,0 -3.32,1.09 -3.74,2.66 -0.47,1.32 -4.22,2.42 -7.97,2.22 -3.99,0 -6.64,0.86 -5.98,2 0.9,1.09 0.23,1.95 -1.09,1.95 -1.33,0 -6.64,1.99 -11.72,4.22 -5.28,2.42 -12.15,5.08 -15.47,5.74 -3.28,0.9 -5.94,2.66 -5.94,3.75 0,1.33 -1.56,1.76 -3.09,1.09 -1.79,-0.66 -6.4,0.24 -9.96,2 -3.75,1.99 -7.73,2.89 -9.06,1.99 -1.09,-0.67 -2.19,-0.2 -2.19,0.9 0,1.32 -1.99,2.42 -4.21,2.42 -2.43,0 -4.85,0.9 -5.51,1.99 -0.67,1.09 -6.64,3.09 -12.81,4.65 -6.41,1.52 -14.61,3.98 -18.36,5.51 -3.52,1.56 -11.49,4.21 -17.66,5.54 -5.98,1.53 -11.95,3.52 -13.28,4.42 -1.1,0.86 -9.49,2.85 -18.13,4.41 -8.83,1.52 -16.09,3.52 -16.09,4.42 0,0.89 -1.56,1.56 -3.32,1.56 -1.8,0 -3.32,-0.9 -3.32,-1.99 0,-0.9 -0.9,-1.8 -2.23,-1.8 -1.09,0 -2.19,1.33 -2.19,3.12 0,1.96 -5.54,3.75 -17.03,5.75 -9.49,1.52 -18.12,3.75 -19.45,4.61 -3.28,3.32 -7.73,2.22 -6.41,-1.33 0.9,-1.96 0,-3.28 -1.99,-3.28 -1.76,0 -3.75,2.18 -4.41,4.61 -1.1,4.21 -2.42,4.64 -10.16,3.55 -5.08,-0.66 -9.06,-0.23 -9.06,0.9 0,1.09 -2.85,1.95 -6.41,1.95 -3.75,0 -7.07,0.9 -7.73,1.99 -0.67,0.9 -3.75,1.33 -6.84,0.67 -3.08,-0.43 -6.83,0 -8.4,1.13 -1.32,1.33 -17.03,3.52 -34.68,5.08 -17.7,1.52 -32.93,3.75 -34.26,4.61 -3.99,2.89 -76.68,4.88 -83.75,2.22 -5.27,-2.22 -5.94,-1.99 -4.84,0.9 1.09,2.85 -3.33,3.32 -33.6,2.85 -18.98,-0.19 -49.02,-1.09 -66.72,-2.18 z m 414.06,-78.01 c -3.98,-6.17 -13.9,-12.81 -10.82,-7.31 2.43,4.22 10.82,12.62 12.82,12.62 0.9,0.2 0,-2.22 -2,-5.31 z m -113.55,-2.23 c 0,-1.09 -12.38,-7.73 -14.61,-7.73 -2.66,0 9.06,8.63 11.95,8.87 1.33,0 2.66,-0.47 2.66,-1.14 z m 162.38,-3.08 c -0.66,-1.33 -2.42,-2.42 -3.75,-2.42 -1.32,0 -1.32,1.32 0.43,3.32 3.09,3.75 5.75,2.85 3.32,-0.9 z m -275.07,-10.59 c -5.51,-5.74 -10.63,-10.82 -11.49,-11.29 -3.98,-1.76 -1.33,-4.65 4.41,-4.65 3.32,0 11.25,-0.62 17.66,-1.52 10.63,-1.33 11.52,-1.09 11.52,3.09 0,2.65 1.1,5.31 2.43,6.17 1.75,1.13 2.18,-0.2 1.32,-3.95 -1.79,-6.4 2.19,-8.4 16.8,-8.4 4.42,0 8.17,-0.89 8.17,-1.79 0,-1.1 3.08,-1.53 6.64,-0.86 3.75,0.43 7.93,0 9.49,-1.33 1.33,-1.09 12.38,-3.32 24.29,-4.88 11.72,-1.53 21.45,-3.75 21.45,-5.08 0,-1.33 2.42,0 5.51,2.89 l 5.51,5.31 -0.43,-5.31 c -0.67,-4.88 0.43,-5.31 15.89,-8.16 9.07,-1.57 18.36,-3.99 20.55,-5.32 2.23,-1.09 5.98,-1.56 8.4,-0.9 2.23,0.9 4.22,0.47 4.22,-0.66 0,-1.09 4.41,-2.85 9.92,-3.52 5.55,-0.89 9.96,-2.65 9.96,-3.98 0,-1.33 1.99,-1.76 4.42,-1.09 2.42,0.66 5.07,0.19 5.74,-0.9 0.66,-1.1 2.42,-1.99 4.22,-1.99 1.75,0 5.74,-1.1 9.25,-2.66 3.32,-1.33 7.5,-2.19 9.07,-1.99 1.32,0.23 2.65,-0.43 2.65,-1.53 0,-1.32 3.75,-2.89 8.4,-3.75 4.42,-0.89 11.25,-2.65 14.81,-4.45 3.75,-1.52 11.05,-3.94 16.56,-5.74 5.51,-1.52 11.91,-3.95 14.37,-5.51 2.43,-1.33 9.07,-3.98 15,-5.51 5.75,-1.56 10.39,-3.55 10.39,-4.45 0,-0.86 2.66,-2.19 6.22,-3.09 3.28,-0.66 11.25,-3.75 17.42,-6.83 6.4,-2.89 14.61,-5.98 18.36,-6.64 3.51,-0.86 6.64,-2.42 6.64,-3.75 0,-1.33 0.66,-1.53 1.33,-0.9 0.85,0.9 4.17,-0.43 7.5,-2.85 3.51,-2.42 7.73,-4.42 9.49,-4.42 1.76,0 4.41,-1.32 5.74,-3.08 1.33,-1.56 5.31,-3.56 8.63,-4.22 3.32,-0.67 8.4,-3.32 11.25,-5.98 3.09,-2.42 7.74,-5.08 10.63,-5.74 2.85,-0.86 5.08,-2.19 5.08,-3.28 0,-1.13 1.52,-1.99 3.51,-1.99 1.8,0 7.74,-2.89 13.05,-6.64 5.31,-3.56 10.82,-6.64 12.15,-6.64 1.32,0 2.89,-1.53 3.55,-3.33 0.86,-1.75 2.62,-3.28 4.18,-3.28 1.56,0 5.31,-1.99 8.63,-4.64 3.09,-2.43 5.75,-3.75 5.75,-2.66 0,0.9 0.86,0.9 1.75,-0.43 2,-2.66 13.48,-9.73 18.79,-11.52 1.99,-0.67 3.75,-1.96 3.75,-3.09 0,-1.09 1.33,-1.99 2.85,-1.99 1.33,-0.2 5.55,-2.42 9.07,-5.28 3.55,-3.12 7.97,-4.64 10.39,-4.21 3.08,0.89 3.98,0.23 3.08,-2 -1.32,-3.08 7.31,-10.58 13.05,-11.48 1.33,-0.24 6.41,-4.18 11.29,-8.59 4.84,-4.46 10.82,-8.87 13.24,-9.54 2.42,-0.86 6.41,-3.32 8.83,-5.5 20.78,-18.56 54.37,-46.18 56.13,-46.18 1.33,0 2.42,-0.89 2.42,-2.22 0,-1.1 1.33,-2.19 2.89,-2.42 1.33,0 6.41,-4.65 11.02,-9.97 4.65,-5.74 8.2,-8.59 8.2,-6.6 0,2 0.86,3.52 2,3.52 1.99,0 4.84,-5.74 3.94,-7.74 -1.09,-2.18 61.21,-62.5 63.63,-61.64 3.99,1.57 9.3,-5.5 5.79,-7.73 -1.8,-1.09 0,-4.18 6.4,-9.73 4.85,-4.41 8.83,-9.06 8.83,-10.39 0,-1.09 1.09,-2.19 2.19,-2.19 1.33,0 2.22,-1.09 2.22,-2.65 0,-1.33 4.65,-7.5 10.59,-13.71 5.78,-6.17 15.47,-17.46 21.68,-24.96 9.49,-11.49 11.48,-12.82 13.48,-9.73 3.51,5.31 5.74,1.33 2.42,-4.18 -2.23,-3.98 -2.23,-5.31 0,-5.98 1.33,-0.66 2.65,-1.99 2.65,-3.08 0,-2.89 15.9,-24.1 18.13,-24.1 0.86,0 1.76,-1.53 1.76,-3.28 0,-4.89 9.06,-16.61 11.48,-15.28 1.09,0.67 1.76,0 1.56,-1.52 -0.66,-4.42 4.18,-15.27 6.84,-15.27 1.09,0 2.23,-1.1 2.23,-2.66 0,-1.29 2.42,-5.74 5.5,-9.69 3.09,-3.98 6.41,-9.73 7.74,-12.81 1.99,-5.55 8.83,-8.2 8.83,-3.56 0,1.33 0.89,2.23 2.22,2.23 1.1,0 1.76,-2.23 1.33,-4.88 -0.47,-2.85 -1.99,-4.85 -3.55,-4.42 -2,0.43 -1.76,-1.09 0.89,-4.41 2,-2.89 5.08,-8.16 6.84,-12.15 1.76,-3.75 4.22,-7.5 5.55,-8.4 1.09,-0.66 3.75,-5.08 5.74,-9.49 5.74,-13.71 12.15,-25.19 14.8,-27.19 1.1,-0.66 2,-2.22 1.76,-3.32 0,-1.09 2.19,-5.51 4.65,-9.72 2.66,-4.18 6.6,-12.58 8.83,-18.56 2.19,-5.97 4.65,-11.48 5.74,-12.15 0.9,-0.66 3.09,-4.84 4.65,-9.06 4.41,-12.15 5.94,-15.7 11.91,-28.71 3.09,-6.64 6.88,-16.37 8.4,-21.45 1.56,-5.31 3.56,-9.49 4.65,-9.49 1.09,0 1.76,-1.33 1.33,-2.65 -0.24,-1.57 0.66,-4.85 1.99,-7.31 1.33,-2.42 3.09,-8.16 3.99,-12.81 0.85,-4.42 2.18,-8.17 3.08,-8.17 0.86,0 2.85,-4.64 4.42,-10.39 1.52,-5.97 3.32,-12.14 3.98,-13.9 0.86,-1.76 1.52,-4.22 1.76,-5.55 0,-1.09 1.33,-4.61 2.65,-7.73 1.33,-3.09 3.09,-9.03 3.75,-13.25 0.9,-4.18 2.89,-10.58 4.65,-14.37 1.53,-3.52 3.99,-13.24 5.74,-21.41 1.53,-8.4 3.52,-15.04 4.42,-15.04 0.9,0 2.65,-8.39 4.18,-18.79 1.56,-10.39 3.55,-18.74 4.45,-18.74 0.86,0 2.19,-4.65 2.85,-10.4 3.09,-26.52 6.84,-50.39 8.4,-51.48 0.9,-0.66 2.89,-15.04 4.18,-32.03 1.56,-17.03 3.13,-32.5 3.79,-34.26 0.66,-1.76 1.33,-9.96 1.52,-18.12 0.24,-7.97 0.9,-15.47 2,-16.33 1.75,-1.99 2.22,-149.81 0.23,-151.8 -0.66,-0.66 -1.56,-8.4 -1.99,-17.46 -0.24,-8.83 -1.1,-17.7 -1.76,-19.45 -0.66,-1.76 -2.23,-17.23 -3.79,-34.26 -1.52,-16.99 -3.51,-32.23 -4.61,-34.22 -1.56,-3.32 -5.08,-23.01 -7.73,-45.74 -0.9,-6.41 -2.23,-11.72 -2.89,-11.72 -0.86,0 -2.66,-8.16 -4.42,-18.13 -1.56,-10.15 -3.98,-18.98 -5.31,-19.88 -1.99,-1.33 -1.99,-2.65 0.23,-6.17 1.33,-2.46 2.66,-6.21 2.66,-8.2 -0.23,-3.75 -0.23,-3.75 -3.09,0 -2.65,3.32 -3.12,2.89 -4.41,-5.28 -0.9,-5.54 -0.66,-10.19 0.86,-11.72 1.56,-1.56 2.23,-0.43 2.23,3.75 0,3.56 1.09,5.98 3.08,5.98 3.32,0 2.42,-10.16 -1.56,-14.8 -2.85,-3.99 -5.94,-3.56 -5.94,0.66 0,1.76 -0.9,2.85 -2.22,1.99 -1.1,-0.66 -1.57,-2.65 -0.67,-4.41 0.67,-1.8 0.24,-3.32 -1.09,-3.32 -1.1,0 -2.66,-4.22 -3.56,-9.53 -0.86,-5.08 -3.08,-11.49 -4.84,-14.34 -1.99,-2.89 -2.89,-6.64 -2.23,-8.16 0.67,-1.8 0.24,-3.79 -0.86,-4.46 -1.13,-0.66 -3.12,-6.6 -4.64,-13.24 -1.57,-6.64 -3.33,-12.15 -4.22,-12.15 -0.86,0 -2.43,-3.75 -3.28,-8.16 -0.9,-4.65 -2.66,-10.39 -3.99,-12.81 -1.33,-2.46 -2.23,-5.75 -1.99,-7.07 0.43,-1.57 -0.24,-2.89 -1.56,-2.89 -1.1,0 -2.86,-3.32 -3.52,-7.31 -0.9,-3.75 -2.89,-9.49 -4.41,-12.58 -1.57,-3.08 -5.55,-11.48 -8.87,-18.79 -3.09,-7.26 -7.73,-17.22 -9.92,-22.07 -2.42,-4.88 -4.42,-9.53 -4.42,-10.62 0,-0.9 -2.42,-5.51 -5.31,-10.16 -3.08,-4.65 -4.84,-9.29 -3.98,-9.96 0.66,-0.86 0.23,-2.19 -1.1,-3.08 -1.99,-1.33 -16.36,-27.39 -32.26,-58.99 -2.42,-4.88 -7.31,-12.38 -10.82,-16.8 -3.32,-4.41 -5.55,-8.63 -4.65,-9.49 0.66,-0.66 0.23,-1.33 -1.1,-1.33 -1.56,0 -2.65,-1.32 -2.65,-2.65 0,-1.56 -3.09,-6.84 -6.64,-11.49 -3.75,-4.88 -6.6,-10.62 -6.6,-12.81 0,-2.23 -1.57,-3.98 -3.32,-3.98 -1.8,0 -3.32,-1.76 -3.32,-3.99 0,-2.19 -2.43,-6.4 -5.55,-9.26 -3.09,-2.89 -5.51,-6.4 -5.51,-7.96 0,-1.57 -1.76,-4.18 -3.98,-5.75 -4.85,-3.32 -7.93,-10.15 -7.27,-15.47 0.2,-2.65 -0.66,-3.51 -2.46,-2.89 -1.76,0.67 -6.17,-2.61 -10.59,-7.93 -7.07,-8.82 -7.07,-9.49 -3.32,-12.14 3.99,-2.89 3.99,-3.09 -0.66,-3.09 -5.51,0 -19.65,-14.14 -21.64,-21.45 -0.66,-2.89 -2.23,-4.64 -3.09,-3.98 -1.13,0.66 -3.79,-1.33 -5.97,-4.41 -2.23,-3.09 -7.74,-9.5 -12.15,-14.38 -4.65,-4.84 -8.4,-9.73 -8.4,-11.05 0,-3.29 -105.86,-108.25 -109.14,-108.25 -1.8,0 -6.21,-3.55 -9.96,-7.73 -3.75,-4.22 -7.31,-7.73 -7.97,-7.73 -0.66,0 -9.92,-7.31 -20.55,-16.14 -10.58,-9.06 -20.97,-16.99 -22.97,-17.65 -2.18,-0.67 -3.32,-2.66 -2.65,-4.46 0.66,-1.75 -0.67,-4.41 -2.66,-6.17 -3.08,-2.42 -3.94,-2.42 -4.84,-0.23 -1.1,3.79 -15.04,-7.93 -14.14,-12.15 0.66,-3.52 -2.23,-3.75 -5.51,-0.43 -1.8,1.76 -3.13,1.09 -4.88,-2.23 -1.53,-2.62 -3.52,-4.61 -4.85,-4.61 -1.33,0 -5.54,-2.46 -9.53,-5.54 -3.94,-3.09 -8.36,-5.51 -9.69,-5.51 -1.56,0 -2.65,-1.56 -2.65,-3.32 0,-1.76 -1.56,-3.32 -3.75,-3.32 -1.99,0 -6.88,-2.42 -10.86,-5.51 -3.95,-3.09 -9.69,-6.41 -12.81,-7.73 -3.09,-1.14 -5.75,-3.09 -5.75,-4.42 0,-1.13 -1.32,-2.23 -3.08,-2.23 -1.57,0 -6.64,-2.85 -11.25,-6.64 -4.65,-3.51 -10.2,-6.6 -12.39,-6.6 -2.22,0 -4.64,-1.13 -5.54,-2.46 -0.67,-1.29 -6.6,-4.84 -12.81,-7.69 -11.68,-5.32 -23.64,-12.19 -25.63,-14.38 -0.66,-0.66 -5.74,-3.08 -11.48,-5.31 -5.98,-2.19 -10.59,-4.65 -10.59,-5.31 0,-0.86 -3.79,-2.86 -8.2,-4.42 -7.5,-2.42 -34.46,-14.8 -52.15,-23.63 -3.52,-1.76 -7.27,-2.66 -8.36,-1.76 -1.13,0.67 -1.99,0.2 -1.99,-0.9 0,-1.09 -4.65,-3.32 -10.39,-4.65 -5.55,-1.52 -12.15,-4.18 -14.81,-5.93 -2.42,-1.57 -5.98,-3.13 -7.97,-3.13 -1.75,0 -6.17,-1.52 -9.72,-3.28 -3.52,-1.99 -6.84,-2.89 -7.5,-2.46 -0.43,0.66 -3.09,-0.2 -5.75,-1.99 -2.42,-1.76 -6.17,-3.28 -8.39,-3.28 -2.23,0 -3.99,-1.57 -3.99,-3.32 0,-2.66 -0.86,-2.89 -4.18,-0.9 -3.12,2.22 -5.08,1.99 -9.3,-0.86 -2.85,-2.23 -7.3,-3.79 -9.72,-3.79 -2.42,0 -7.07,-1.33 -10.16,-2.85 -3.08,-1.76 -7.97,-2.66 -10.58,-2.23 -4.46,0.67 -4.89,0.24 -2.46,-2.66 2.46,-2.85 1.99,-3.28 -3.52,-2.85 -13.28,0.86 -18.56,-0.43 -18.79,-4.22 0,-2.42 -0.66,-2.85 -1.33,-1.09 -0.43,1.33 -2.85,2.66 -5.31,2.66 -2.85,0 -3.75,-1.1 -2.66,-3.75 1.14,-2.89 0.47,-3.32 -2.42,-2.23 -6.4,2.42 -20.97,-0.66 -19.65,-4.18 1.33,-3.75 -1.99,-3.98 -5.31,-0.66 -1.52,1.52 -4.18,1.75 -6.64,0.86 -2.19,-1.1 -5.74,-1.53 -7.93,-1.29 -2.23,0.19 -5.31,-0.47 -6.64,-1.57 -1.52,-1.09 -12.15,-3.32 -23.63,-4.88 -11.49,-1.52 -21.45,-3.51 -22.11,-4.41 -1.33,-1.76 -70.71,-8.83 -86.17,-8.83 -5.75,0 -11.25,-1.09 -12.82,-2.66 -3.51,-3.51 -167.93,-3.75 -175.43,-0.19 -2.85,1.33 -19.88,3.51 -38,4.84 -18.13,1.33 -33.79,3.09 -35.12,3.99 -1.56,0.86 -6.41,1.32 -11.06,0.86 -4.64,-0.2 -9.49,0.46 -11.05,1.56 -1.52,1.09 -7.27,2.89 -13.01,3.55 -9.3,1.29 -10.62,1.1 -10.62,-2.22 0,-3.32 -0.67,-3.32 -5.08,0.89 -2.89,2.62 -7.74,4.85 -11.06,4.85 -3.08,0 -6.4,1.09 -7.07,2.42 -0.86,1.13 -3.75,1.99 -6.17,1.56 -2.66,-0.23 -5.74,0 -7.07,0.86 -1.13,0.67 -7.97,2.46 -15.27,3.79 -7.07,1.33 -14.14,3.28 -15.43,4.42 -1.33,1.09 -8.4,2.65 -15.71,3.51 -7.3,0.9 -15.23,2.66 -17.69,3.99 -2.42,1.32 -6.17,2.22 -8.16,1.75 -2.19,-0.19 -3.99,0.47 -3.99,1.57 0,1.32 -6.41,3.51 -14.34,5.07 -7.96,1.57 -14.37,3.56 -14.37,4.42 0,0.9 -3.75,2.22 -8.16,3.08 -4.65,0.67 -11.96,3.13 -16.14,5.32 -4.41,2.22 -11.29,4.88 -15.47,5.74 -4.21,0.9 -9.72,2.89 -12.14,4.41 -2.43,1.56 -10.16,4.65 -17.23,6.88 -6.88,2.18 -12.62,4.84 -12.62,5.74 0,1.09 -0.86,1.52 -2.19,0.66 -1.13,-0.66 -3.78,-0.23 -5.97,1.1 -4.88,2.65 -16.37,7.3 -19.45,7.5 -1.1,0.23 -6.18,2.65 -11.06,5.97 -4.84,3.09 -13.01,6.84 -18.32,8.64 -5.08,1.52 -9.3,3.75 -9.3,4.84 0,1.09 -0.86,1.33 -2.18,0.66 -1.14,-0.66 -2.23,-0.43 -2.23,0.67 0,1.09 -3.99,3.32 -8.83,4.84 -4.88,1.56 -8.83,3.79 -8.83,4.65 0,0.9 -3.12,2.23 -6.64,3.09 -3.75,0.9 -6.64,2.46 -6.64,3.55 0,1.1 -1.99,1.99 -4.41,1.99 -2.42,0 -4.42,0.86 -4.42,2 0,1.75 -3.98,4.18 -26.95,15.89 -4.41,2.19 -8.83,5.08 -9.49,6.41 -0.67,1.09 -3.32,2.23 -5.55,2.23 -2.42,0 -5.27,1.95 -6.6,4.41 -1.33,2.42 -3.55,4.42 -5.08,4.42 -1.56,0 -6.4,2.65 -10.62,5.74 -4.18,3.08 -9.73,6.64 -12.39,7.73 -2.85,1.1 -5.07,2.85 -5.07,4.18 0,1.13 -1.1,2.23 -2.43,2.23 -1.32,0 -5.31,1.99 -8.82,4.65 -3.56,2.42 -7.31,3.94 -8.4,3.08 -1.33,-0.66 -2.89,0.2 -3.99,1.99 -2.22,3.99 -37.58,32.27 -40.43,32.27 -1.09,0 -3.08,1.95 -4.41,4.41 -1.33,2.43 -3.56,4.42 -4.65,4.42 -1.33,0 -8.16,4.84 -15.04,10.82 -6.83,5.74 -14.57,11.25 -17.22,12.15 -2.86,0.9 -5.08,3.08 -5.08,4.65 0,1.75 -2.42,4.41 -5.32,5.97 -3.08,1.53 -11.91,9.03 -19.64,16.56 -7.97,7.74 -15.9,13.91 -17.89,13.91 -2,0 -3.56,1.09 -3.56,2.23 0,3.51 -15.66,19.88 -19.22,19.88 -1.52,0 -2.85,1.52 -2.85,3.32 0,1.76 -1.56,3.28 -3.32,3.28 -1.76,0 -3.32,1.33 -3.32,2.89 0,3.75 -11.95,15.24 -13.91,13.24 -0.89,-0.66 -1.56,0.24 -1.56,2 0,1.99 -6.17,10.15 -13.48,18.12 -10.15,11.06 -14.8,14.38 -17.69,13.48 -4.61,-1.52 -5.51,1.09 -1.52,5.08 1.52,1.56 1.75,2.65 0.43,2.65 -1.33,0 -3.52,2.42 -4.85,5.51 -1.33,3.13 -3.55,5.55 -4.88,5.55 -3.32,0 -9.73,6.4 -7.93,8.16 0.66,0.67 -3.75,7.07 -9.73,13.95 -6.21,7.07 -11.05,13.67 -11.05,14.57 0,1.09 -1.99,3.32 -4.42,4.84 -2.42,1.56 -4.41,3.99 -4.41,5.55 -0.23,1.33 -3.56,6.4 -7.73,11.01 -7.54,8.64 -12.15,9.3 -12.15,1.57 0,-2.19 -1.14,-4.85 -2.46,-5.51 -4.61,-3.13 -4.85,1.33 -0.43,9.72 l 4.64,8.36 -7.96,8.64 c -4.42,4.88 -7.74,9.49 -7.5,10.39 0.23,1.09 -3.32,7.5 -7.97,14.37 -16.8,24.96 -20.32,30.47 -20.32,33.13 0,1.33 -1.99,3.55 -4.41,4.84 -2.42,1.33 -4.41,3.99 -4.41,5.78 0,1.96 -2,5.94 -4.42,9.03 -2.46,3.12 -4.45,6.87 -4.45,8.39 0,1.33 -2.85,6.41 -6.6,11.29 -3.56,4.65 -6.64,9.93 -6.64,11.49 0,1.33 -0.9,2.65 -2.19,2.65 -1.13,0 -2.23,1.33 -2.23,3.09 0,3.09 -6.64,17.03 -9.06,18.98 -0.66,0.67 -2.66,4.89 -4.41,9.54 -1.57,4.41 -3.75,8.16 -4.89,8.16 -0.86,0 -1.09,1.09 -0.43,2.23 0.67,1.29 0.43,2.18 -0.43,2.18 -1.09,0 -3.32,3.75 -4.88,8.4 -4.84,14.38 -9.69,22.11 -12.81,20.98 -2.42,-0.86 -2.66,0.47 -1.76,5.98 0.9,5.31 0.43,6.83 -1.52,6.17 -1.99,-0.86 -2.89,1.13 -3.13,6.44 0,4.85 -1.52,8.6 -3.94,9.92 -2.89,1.76 -3.32,2.9 -1.14,5.32 1.76,1.99 1.76,3.08 0.24,3.08 -1.33,0 -3.56,3.99 -4.88,8.83 -1.29,4.65 -3.29,9.3 -4.61,10.16 -1.33,0.66 -1.8,2.46 -1.33,3.98 1.76,4.42 -3.32,9.06 -16.13,14.38 -13.48,5.74 -17.7,8.63 -17.7,11.72 0,3.32 10.63,0 19.45,-5.98 4.42,-3.09 8.4,-5.08 8.83,-4.42 0.67,0.43 -1.09,4.65 -3.51,9.5 -2.43,4.65 -5.08,12.57 -5.98,17.69 -0.9,5.08 -2.42,9.69 -3.32,10.35 -1.09,0.67 -1.52,2.66 -0.66,4.46 0.66,1.75 0.23,3.28 -1.1,3.28 -1.09,0 -2.89,3.32 -3.51,7.54 -0.9,4.18 -3.13,10.58 -4.89,14.33 -1.99,3.99 -2.85,8.4 -2.18,10.2 0.62,1.76 0.19,3.75 -0.67,4.41 -1.13,0.43 -3.12,7.74 -4.65,15.9 -1.33,8.4 -3.98,18.13 -5.54,21.64 -1.53,3.75 -3.52,11.72 -4.42,17.7 -0.86,6.17 -2.42,12.38 -3.75,13.67 -1.33,1.56 -1.76,4.88 -1.09,7.3 0.66,2.43 0.19,5.08 -0.9,5.75 -1.09,0.66 -1.99,4.41 -1.99,8.16 -0.2,6.41 -0.43,6.64 -3.09,3.32 -1.56,-2.19 -3.51,-3.32 -4.18,-2.42 -2.65,2.65 -1.56,9.06 1.76,10.39 3.75,1.33 4.41,11.25 1.09,13.48 -1.32,0.66 -1.52,3.75 -0.86,6.83 0.63,2.89 0.43,6.64 -0.89,8.2 -2.43,2.86 -9.3,66.25 -9.3,85.94 0,6.64 -1.09,13.05 -2.19,14.14 -2.65,2.66 -3.55,156.21 -0.9,160.2 2.23,3.51 2.66,28.47 0.43,28.47 -0.86,0 -1.75,3.99 -1.75,8.87 0,10.59 3.74,11.92 5.07,1.76 0.67,-5.98 0.9,-5.55 1.14,2.66 0.66,16.56 5.5,55.23 7.07,55.23 0.86,0 2.85,11.48 4.41,25.39 1.52,14.14 3.75,26.09 4.61,26.76 1.13,0.43 1.13,2.65 0.47,4.41 -0.67,1.99 -0.47,4.18 0.66,5.08 1.33,0.66 3.52,9.26 5.08,18.98 1.52,9.73 3.52,18.13 4.65,18.79 0.86,0.67 2.85,7.74 4.41,16.14 1.53,8.16 3.75,14.8 4.85,14.8 1.32,0 1.75,1.99 1.09,4.42 -0.62,2.42 -0.43,4.88 0.66,5.54 0.9,0.67 3.13,7.5 4.65,15.43 1.57,7.97 3.56,14.38 4.42,14.38 0.9,0 2.65,5.31 4.22,11.48 1.32,6.41 3.75,13.71 5.31,16.13 1.52,2.43 4.18,9.73 5.51,16.14 1.56,6.17 3.75,11.95 4.64,12.61 1.1,0.63 3.52,6.84 5.75,13.91 2.18,6.84 4.65,13.05 5.5,13.71 0.9,0.67 2.66,5.51 4.22,11.02 1.53,5.31 4.42,12.15 6.84,15.04 2.23,3.08 4.22,6.64 4.22,7.96 0,2 31.56,66.06 45.27,91.92 2.23,4.18 4.65,8.83 5.31,10.16 0.67,1.52 4.85,7.92 9.26,14.33 13.28,20.12 15.47,24.1 14.14,26.33 -0.66,1.33 0.24,2.19 1.99,2.19 1.8,0 3.99,1.99 4.65,4.41 0.67,2.42 2.43,4.42 3.75,4.42 1.33,0 2,0.66 1.14,1.32 -0.67,0.9 2.61,6.64 7.5,13.05 4.64,6.17 8.59,12.15 8.59,13.05 0,0.86 7.97,11.48 17.93,23.63 9.69,11.91 17.23,22.77 16.56,23.63 -1.33,1.99 6.41,9.3 9.73,9.3 1.33,0 2.19,1.33 2.19,2.85 0,1.56 3.55,7.07 7.73,11.95 4.22,5.08 7.73,10.16 7.73,11.49 0,1.33 1.57,2.42 3.32,2.42 1.76,0 3.33,0.9 3.33,1.99 0,0.9 4.64,7.07 10.58,13.48 17.03,19.22 98.56,101.41 99.45,100.55 0.43,-0.47 3.75,2.18 7.27,5.74 3.32,3.51 7.3,6.4 8.4,6.4 1.13,0 5.08,3.52 8.87,7.74 3.75,4.18 7.26,7.73 8.16,7.73 0.66,0 6.41,4.42 12.58,9.92 6.4,5.55 12.38,9.97 13.71,9.97 1.33,0 4.18,3.08 6.41,6.83 2.22,3.56 5.07,6.17 6.4,5.74 1.56,-0.43 7.74,3.32 13.91,8.17 6.21,5.12 13.28,10.39 15.47,11.72 2.46,1.56 7.73,5.31 11.95,8.4 4.18,3.08 10.39,6.87 13.67,8.16 3.32,1.56 6.41,4.45 7.07,6.87 0.47,2.43 2.46,3.75 3.99,3.09 2.89,-0.9 12.14,4.65 20.35,12.15 2.42,2.23 7.5,4.88 11.48,6.17 3.99,1.33 7.74,3.79 8.17,5.31 0.66,1.57 3.75,3.56 6.83,4.42 8.21,1.99 21.02,10.82 21.21,14.61 0,2.42 0.47,2.65 1.8,0.43 1.33,-2 7.27,0.23 23.63,8.39 11.92,6.18 22.31,11.92 22.97,13.05 0.67,0.86 3.75,2.62 6.84,3.52 3.12,0.9 11.52,4.22 18.79,7.73 29.61,13.71 33.36,15.24 39.33,16.56 3.32,0.9 5.98,2.23 5.98,3.09 0,0.9 4.65,2.89 10.58,4.45 5.75,1.76 13.48,4.85 17.04,6.84 3.75,2.23 10.58,4.65 15.46,5.51 4.85,0.9 9.93,2.22 11.06,3.32 1.29,0.9 6.17,2.89 11.02,4.41 4.88,1.56 9.96,3.75 11.48,4.88 1.33,1.1 3.79,1.76 5.55,1.53 1.52,-0.2 5.97,0.66 9.49,2.22 3.75,1.57 10.15,3.32 14.37,3.99 4.18,0.66 8.83,1.99 9.93,3.08 1.32,0.9 9.72,3.32 18.78,5.32 9.07,1.99 18.56,4.41 20.98,5.5 2.46,1.1 11.52,3.09 19.92,4.42 8.6,1.33 17.42,3.32 19.89,4.41 4.18,2 22.73,4.89 47.5,7.97 6.6,0.67 13.24,2.23 14.33,3.09 2.46,1.99 47.74,6.64 64.3,6.64 6.21,0 12.38,1.33 13.71,2.85 3.98,3.79 186.05,3.98 190.9,0 2.65,-2.19 5.51,-0.43 16.13,10.39 15.47,15.7 21.88,17.89 7.74,2.89 z m 190.89,4.84 c -1.56,-3.51 -5.31,-4.64 -5.31,-1.32 0,1.75 1.56,2.89 5.98,4.41 0.23,0.24 0,-1.33 -0.67,-3.09 z m -217.42,-8.82 c -2.85,-3.09 -6.17,-5.51 -7.5,-5.51 -2.42,0.19 8.83,11.01 11.25,11.01 0.9,0 -0.86,-2.42 -3.75,-5.5 z m 285.9,0.66 c -6.41,-7.3 -10.59,-11.48 -15.23,-14.8 -2.43,-1.76 0.43,1.75 6.64,8.16 10.82,11.48 16.79,15.9 8.59,6.64 z m -131.21,-2.89 c -1.56,-1.99 -3.32,-2.85 -3.79,-2.42 -1.33,1.33 4.45,7.97 5.74,6.64 0.47,-0.43 -0.43,-2.23 -1.95,-4.22 z m 89.45,-40.86 c -2.19,-2.42 -4.41,-3.98 -5.08,-3.32 -0.66,0.66 0.67,3.09 2.89,5.55 2.19,2.42 4.42,3.94 5.08,3.28 0.67,-0.67 -0.66,-3.09 -2.89,-5.51 z m 219.85,-37.58 c 0,-1.09 -2.19,-3.28 -4.85,-4.61 -5.08,-2.65 -5.08,-2.65 -0.9,2.19 4.65,5.08 5.75,5.74 5.75,2.42 z m -15.47,-15 c 0,-1.13 -3.28,-4.22 -7.07,-7.07 l -7.27,-5.08 6.41,6.84 c 6.83,7.5 7.93,8.16 7.93,5.31 z m -1184.92,-82.65 c -0.67,-1.53 -1.14,-0.43 -1.14,2.65 0,3.09 0.47,4.22 1.14,2.89 0.43,-1.56 0.43,-4.22 0,-5.54 z m -114.26,-47.5 c 0,-11.25 -1.96,-11.72 -3.28,-0.67 -0.9,6.88 0,11.06 2.42,11.06 0.43,0 0.86,-4.65 0.86,-10.39 z m 0.23,-26.53 c -1.99,-3.28 -2.19,-2.61 -2.19,3.79 0,6.41 0.2,7.07 2.19,3.95 1.56,-2.62 1.56,-5.28 0,-7.74 z m 1.33,-9.92 c -0.66,-1.76 -1.33,-1.09 -1.33,1.33 -0.23,2.42 0.43,3.75 1.1,2.85 0.66,-0.66 0.89,-2.62 0.23,-4.18 z m 0,-8.83 c -0.66,-1.79 -1.33,-1.13 -1.33,1.33 -0.23,2.42 0.43,3.75 1.1,2.85 0.66,-0.66 0.89,-2.65 0.23,-4.18 z m 0,-15.47 c -0.66,-1.56 -1.09,-0.46 -1.09,2.66 0,3.09 0.43,4.18 1.09,2.85 0.43,-1.52 0.43,-4.18 0,-5.51 z m 1891.33,-912.54 c -0.67,-1.75 -1.33,-1.09 -1.33,1.33 -0.23,2.43 0.43,3.75 1.09,2.89 0.67,-0.66 0.9,-2.65 0.24,-4.22 z m 2.65,-13.47 c 0,-4.65 -0.23,-4.65 -1.99,-0.43 -2.65,6.17 -2.65,8.16 0,6.64 1.33,-0.66 2.19,-3.56 1.99,-6.21 z m -2299.88,-55.67 c 3.13,-3.55 2.23,-3.98 -3.08,-1.99 -2,0.67 -3.52,2.19 -3.52,3.32 0,3.09 3.52,2.42 6.6,-1.33 z m -24.06,-127.73 c -2.23,-1.95 -2.42,-1.76 -1.09,1.33 0.66,2.22 1.99,3.32 2.65,2.65 0.63,-0.66 0,-2.42 -1.56,-3.98 z m 24.06,-13.48 c 0,-0.43 -1.76,-2.18 -3.75,-3.75 -3.51,-2.85 -3.75,-2.65 -0.86,0.9 2.85,3.52 4.61,4.65 4.61,2.85 z m 72.27,-70.23 c -0.67,-1.76 -1.33,-1.13 -1.33,1.33 -0.24,2.42 0.43,3.75 1.09,2.85 0.67,-0.67 0.9,-2.66 0.24,-4.18 z m -72.27,-8.4 c 2.89,-1.76 2.89,-2.23 -0.43,-2.23 -1.99,0 -4.41,1.14 -5.08,2.23 -1.75,2.85 1.1,2.85 5.51,0 z m 13.28,-8.4 c -3.32,-1.09 -9.06,3.99 -7.5,6.64 0.63,1.1 3.28,0.2 5.75,-1.99 2.42,-2.23 3.28,-4.22 1.75,-4.65 z m 8.83,-2.65 c 0,-1.1 -0.9,-2.23 -2.19,-2.23 -1.13,0 -2.22,1.13 -2.22,2.23 0,1.32 1.09,2.22 2.22,2.22 1.29,0 2.19,-0.9 2.19,-2.22 z m 45.74,-9.3 c -0.66,-1.52 -1.09,-0.43 -1.09,2.66 0,3.08 0.43,4.21 1.09,2.89 0.43,-1.57 0.43,-4.22 0,-5.55 z m -17.22,-2.19 c 7.5,-3.98 13.47,-8.4 13.47,-9.96 0,-3.32 -5.97,-1.52 -12.15,3.75 -2.46,2.23 -7.07,4.45 -10.39,5.31 -3.55,0.67 -6.21,2.89 -6.21,4.65 0,4.42 -0.19,4.42 15.28,-3.75 z m 12.81,-30.94 c -0.67,-1.56 -1.09,-0.43 -1.09,2.66 0,3.09 0.42,4.18 1.09,2.85 0.43,-1.52 0.43,-4.18 0,-5.51 z m -0.67,-11.48 c -0.66,-1.99 -2.22,-3.56 -3.32,-3.56 -1.32,0 -1.09,2 0.24,4.65 2.85,5.32 5.27,4.42 3.08,-1.09 z m -6.4,-43.52 c -1.1,-9.29 -3.32,-11.05 -3.32,-2.65 0,5.74 1.33,9.49 3.51,9.49 0.47,0 0.24,-3.09 -0.19,-6.84 z m -2.66,-17.93 c -0.66,-3.94 -2.22,-8.16 -3.32,-9.49 -1.76,-1.99 -1.09,5.08 1.76,13.95 1.56,5.51 2.89,2.42 1.56,-4.46 z m -4.88,-27.61 c -2.62,-4.42 -3.09,-3.09 -1.09,2.65 0.89,2 1.99,3.09 2.42,2.43 0.66,-0.43 0,-2.86 -1.33,-5.08 z M 3348.4,1903.4 c -1.8,-3.75 -1.8,-5.94 0.19,-8.17 1.33,-1.75 1.8,-4.84 1.14,-7.07 -1.14,-2.89 -2,-3.08 -3.32,-0.89 -3.09,5.07 -5.08,0 -2.23,-5.94 3.09,-7.07 7.73,-5.74 8.4,2.42 0.43,6.84 5.08,13.48 5.08,7.3 0,-1.99 1.99,-5.11 4.64,-7.07 4.85,-3.32 4.85,-9.96 0,-27.85 -1.99,-7.5 -1.99,-7.5 -2.22,3.99 -0.2,7.73 -1.1,11.25 -2.62,10.39 -1.33,-0.9 -1.8,-2.89 -1.13,-4.65 0.66,-1.56 0.23,-3.56 -0.67,-4.22 -1.09,-0.66 -2.42,0.24 -3.08,1.99 -2.42,6.21 -11.72,0.9 -10.59,-5.97 0.2,-1.1 -0.66,-1.29 -1.99,-0.43 -1.33,0.89 -3.75,0.23 -5.55,-1.1 -2.42,-1.99 -3.32,-1.99 -3.32,-0.23 0,1.33 1.14,2.42 2.23,2.42 1.33,0 2.23,3.13 2.23,6.64 0,3.75 -0.9,6.64 -1.8,6.64 -1.52,0 -1.76,3.99 -0.86,16.8 0.19,2.65 2.42,6.83 4.61,9.49 2.46,2.85 3.79,6.64 3.12,8.4 -0.89,2.42 -0.46,3.09 1.1,1.99 1.56,-0.9 3.32,0 3.98,1.99 1.1,2.66 1.99,3.09 3.09,0.86 1.09,-1.52 0.66,-5.08 -0.43,-7.73 z m -21.21,-18.99 c -1.57,-1.56 -2.66,-4.41 -2.66,-6.83 0,-2.23 -0.9,-3.56 -2.23,-2.66 -2.18,1.33 -0.42,7.93 3.09,10.35 3.79,2.66 4.65,2 1.8,-0.86 z m -2.66,-26.29 c 0,-5.97 0.86,-8.39 2.42,-7.3 1.33,0.66 0.67,-1.09 -1.33,-4.18 -1.99,-3.32 -3.08,-6.87 -2.42,-7.97 0.86,-1.09 0.43,-2.65 -0.66,-3.32 -2.89,-1.76 -3.75,3.56 -2.89,18.79 0.9,14.57 4.88,17.89 4.88,3.98 z m 37.54,-17.22 c 0,-2.89 -8.83,-12.19 -10.16,-10.63 -0.86,0.67 0.24,2.89 2.23,4.89 1.99,1.95 3.52,5.07 3.52,6.83 0,1.76 1.09,2.66 2.22,1.99 1.33,-0.66 2.19,-2.22 2.19,-3.08 z m 848.91,-303.4 c -1.57,-1.52 -2.66,-1.76 -2.66,-0.43 0,3.09 2.66,5.74 4.18,4.22 0.47,-0.67 -0.2,-2.46 -1.52,-3.79 z"
         style="fill:#000000;fill-opacity:1;fill-rule:nonzero;stroke:none"
         id="path12" />
      <path
         d="m 4158.16,3583.52 c -0.43,-1.14 -7.5,-1.8 -15.7,-1.8 -21.21,0 -76.44,-4.61 -77.77,-6.6 -0.67,-0.9 -8.4,-2.42 -16.99,-3.32 -8.83,-0.9 -16.14,-2.42 -16.14,-3.32 0,-1.1 -3.32,-1.33 -7.5,-0.67 -3.98,0.67 -7.97,0.24 -8.86,-1.09 -0.67,-1.33 -3.32,-1.76 -5.75,-1.1 -2.42,0.67 -5.74,0.2 -7.26,-1.13 -1.33,-1.33 -9.07,-3.51 -17.03,-4.84 -7.97,-1.56 -15.24,-3.56 -16.57,-4.42 -1.09,-1.13 -7.07,-2.42 -13.28,-3.55 -7.93,-1.09 -9.69,-1.99 -6.83,-3.09 2.42,-0.89 3.32,-1.99 2.22,-2.89 -2.65,-1.52 -7.54,-0.86 -10.82,1.14 -1.33,0.86 -5.31,0.19 -8.86,-1.33 -3.75,-1.76 -11.06,-4.22 -16.57,-5.98 -5.5,-1.52 -10.82,-3.51 -12.15,-4.41 -1.09,-0.9 -6.64,-2.66 -12.14,-4.18 -5.55,-1.56 -11.49,-3.99 -13.28,-5.55 -1.76,-1.52 -7.27,-3.51 -11.92,-4.41 -6.17,-1.1 -7.97,-2 -5.74,-3.32 1.76,-1.1 2.42,-2.66 1.56,-3.52 -0.66,-0.9 -2.66,-0.47 -4.45,0.86 -2.19,1.8 -5.51,1.13 -13.67,-2.85 -6.21,-2.89 -12.82,-5.55 -14.81,-5.55 -2.23,0 -3.98,-0.86 -3.98,-2.19 0,-1.13 -1.33,-2.22 -3.09,-2.22 -1.56,0 -5.55,-1.99 -8.83,-4.65 -3.12,-2.42 -6.64,-3.75 -7.97,-3.09 -1.09,0.67 -2.22,0.24 -2.22,-0.86 0,-1.32 -1.33,-2.46 -3.09,-2.46 -1.52,0 -5.51,-1.99 -8.83,-4.61 -3.08,-2.46 -6.4,-3.98 -7.5,-3.55 -0.89,0.66 -5.74,-1.76 -11.05,-5.31 -5.08,-3.52 -10.39,-6.41 -11.72,-6.41 -1.09,0 -5.98,-2.42 -10.39,-5.51 -4.41,-3.08 -9.06,-5.51 -10.39,-5.51 -1.09,0 -6.17,-3.12 -10.82,-6.64 -4.85,-3.75 -9.92,-6.64 -11.49,-6.64 -1.75,0 -3.98,-1.99 -5.31,-4.41 -1.33,-2.42 -3.75,-4.42 -5.27,-4.42 -1.8,0 -4.22,-1.56 -5.78,-3.32 -1.53,-1.99 -6.41,-5.07 -10.82,-7.07 -4.42,-1.99 -15,-9.49 -23.87,-16.56 -8.59,-7.07 -16.76,-12.81 -18.09,-12.81 -1.32,0 -3.55,-2.42 -4.88,-5.31 -1.52,-3.09 -4.84,-5.98 -7.73,-6.64 -2.85,-0.86 -5.32,-2.86 -5.32,-4.61 0,-1.8 -1.52,-3.32 -3.28,-3.32 -1.79,0 -4.45,-2 -5.97,-4.42 -1.57,-2.46 -3.75,-4.45 -4.65,-4.45 -2.66,0 -8.17,-5.94 -8.17,-8.59 0,-1.33 -1.56,-2.43 -3.55,-2.43 -5.74,0 -98.99,-95.23 -102.5,-104.96 -0.67,-1.56 -3.56,-5.31 -6.21,-8.16 -6.6,-6.41 -29.14,-36.25 -29.14,-38.24 0,-0.9 -2.89,-5.32 -6.64,-9.93 -3.52,-4.64 -6.64,-9.53 -6.64,-10.85 0,-1.33 -0.86,-2.43 -2.19,-2.43 -1.09,0 -2.23,-1.52 -2.23,-3.32 0,-1.75 -0.86,-3.32 -1.99,-3.32 -1.09,0 -3.52,-2.61 -5.27,-5.93 -1.8,-3.56 -5.75,-10.83 -8.87,-16.57 -3.09,-5.54 -5.08,-10.86 -4.41,-11.29 0.66,-0.66 -0.86,-2.65 -3.52,-4.18 -2.66,-1.56 -4.65,-4.64 -4.65,-6.87 0,-2.19 -1.56,-4.42 -3.32,-5.08 -1.76,-0.86 -2.66,-2.19 -1.99,-3.32 0.66,-1.09 0,-1.99 -1.52,-1.99 -2.23,0 -2.23,-0.67 -0.24,-2.62 3.75,-3.79 3.32,-6.44 -0.66,-5.78 -2,0.47 -5.51,-2.62 -7.97,-6.41 -4.18,-6.4 -4.18,-7.5 -1.1,-8.59 3.75,-1.56 4.89,-7.5 1.33,-7.5 -1.09,0 -2.22,1.09 -2.22,2.19 0,1.33 -0.86,2.22 -2.19,2.22 -1.1,0 -2.23,-1.99 -2.23,-4.21 0,-2.19 -1.33,-4.65 -2.85,-5.32 -1.56,-0.66 -4.22,-5.51 -5.74,-10.58 -1.56,-5.32 -3.56,-10.16 -4.42,-10.82 -1.79,-1.33 -9.72,-17.89 -10.19,-21.02 -0.2,-2.42 -4.42,-12.34 -9.06,-21.64 -1.76,-3.52 -2.62,-7.3 -1.76,-8.4 0.66,-1.09 0.23,-1.99 -0.86,-1.99 -1.13,0 -2.66,-2.85 -3.32,-6.6 -0.9,-3.56 -3.32,-10.86 -5.74,-15.94 -2.23,-5.27 -4.89,-13.01 -5.75,-17.23 -0.89,-4.18 -2.65,-9.06 -3.78,-10.39 -1.29,-1.52 -1.53,-2.85 -0.63,-2.85 0.86,0 0.63,-1.33 -0.66,-2.65 -1.33,-1.57 -2.89,-6.84 -3.79,-11.72 -0.86,-4.85 -3.09,-12.15 -4.85,-16.14 -2.65,-5.74 -2.89,-7.73 -0.66,-10.39 2.23,-2.65 2.23,-3.32 -0.66,-3.32 -2.43,0 -3.75,-3.28 -4.85,-11.01 -0.9,-5.98 -2.46,-11.49 -3.32,-12.15 -0.9,-0.67 -1.33,-3.13 -0.66,-5.55 0.66,-2.42 0.19,-5.74 -1.14,-7.26 -1.28,-1.33 -3.51,-12.39 -5.07,-24.1 -1.53,-11.92 -3.75,-21.65 -4.85,-21.65 -1.09,0 -1.76,-4.21 -1.33,-9.29 0.24,-5.32 -0.23,-11.06 -0.89,-12.82 -2.66,-6.4 -5.94,-71.79 -5.94,-115.78 0,-48.16 3.75,-113.79 6.6,-117.3 0.9,-1.13 1.56,-6.41 1.33,-11.49 -0.2,-5.31 0.23,-9.53 0.9,-9.53 0.9,0 2.65,-9.72 4.41,-21.4 1.56,-11.96 3.56,-22.54 4.41,-23.87 0.9,-1.13 3.32,-11.95 5.55,-23.63 2.19,-11.96 4.42,-21.68 5.27,-21.68 0.9,0 2.9,-6.17 4.42,-13.67 1.56,-7.74 3.32,-15.47 4.22,-17.27 0.66,-1.76 1.33,-3.75 1.33,-4.41 0.23,-0.67 0.86,-2 1.52,-3.32 0.9,-1.1 2.66,-7.5 4.22,-13.91 1.56,-6.64 3.75,-12.38 5.31,-12.81 1.33,-0.43 2.66,-3.75 2.66,-7.07 0.19,-3.32 1.52,-8.83 3.28,-12.58 1.56,-3.56 2.89,-7.07 3.12,-7.74 0.86,-2.46 8.17,-19.25 12.15,-27.61 2.19,-4.89 4.85,-11.53 5.51,-15.04 0.9,-3.32 2.23,-5.98 3.09,-5.98 1.13,0 3.08,-3.98 4.64,-8.83 1.57,-4.88 3.75,-8.82 4.85,-8.82 0.9,0 1.79,-1.14 1.79,-2.47 0,-2.85 6.84,-18.08 9.07,-19.64 0.66,-0.67 2.65,-4.85 4.41,-9.5 1.52,-4.41 3.75,-8.16 4.65,-8.16 0.86,0 1.76,-1.33 1.76,-3.13 0,-1.52 2.85,-6.6 6.6,-11.25 3.79,-4.64 6.64,-9.72 6.64,-11.48 0,-1.76 2.42,-6.41 5.55,-10.39 3.08,-3.98 5.5,-8.4 5.5,-9.73 0,-1.33 5.98,-9.92 13.25,-18.98 7.3,-9.3 15.46,-20.78 17.93,-25.67 2.61,-4.84 5.5,-9.49 6.83,-10.15 1.1,-0.67 2.85,-3.75 4.18,-6.6 1.13,-3.13 3.32,-5.32 4.65,-5.12 3.98,0.66 10.63,-2.42 10.63,-4.84 0,-1.1 -1.8,-2 -3.79,-2 -3.09,0 -1.96,-1.99 3.79,-7.3 4.17,-3.95 7.92,-8.17 8.16,-9.26 0.43,-1.33 8.63,-10.82 18.32,-21.44 9.73,-10.39 17.69,-19.65 17.69,-20.32 0,-1.99 43.95,-45.5 45.94,-45.5 1.13,0 4.22,-2.66 7.31,-5.75 12.81,-13.94 50.58,-45.08 50.58,-41.99 0,1.99 0.67,3.52 1.8,3.52 2.62,0 7.27,-8.83 5.94,-11.02 -0.86,-1.33 0.47,-2.89 2.65,-3.79 2.23,-0.66 6.88,-3.75 10.16,-6.6 3.55,-2.89 7.73,-5.08 9.53,-5.08 1.76,0 3.09,-1.56 3.09,-3.55 0,-1.76 0.86,-2.66 2.18,-1.99 1.14,0.66 9.07,-4.18 17.27,-10.82 8.36,-6.84 16.76,-12.39 18.75,-12.39 1.8,0 3.75,-0.86 4.22,-1.76 1.33,-3.08 14.57,-11.48 18.12,-11.48 2,0 5.28,-1.76 7.5,-3.98 4.85,-4.65 9.93,-7.93 20.32,-13.25 4.21,-2.22 9.72,-5.07 12.14,-6.4 2.47,-1.33 7.97,-4.22 12.15,-5.98 4.22,-1.99 9.3,-4.41 11.06,-5.51 7.3,-4.22 38.9,-18.79 40.9,-19.02 2.65,-0.2 12.34,-4.41 23.2,-9.73 4.18,-2.18 12.34,-5.27 18.32,-6.83 5.74,-1.57 10.39,-3.56 10.39,-4.22 0,-0.86 6.41,-2.85 14.38,-4.42 7.93,-1.52 14.33,-3.94 14.33,-5.07 0,-1.33 1.56,-1.76 3.32,-1.1 1.76,0.9 3.75,0.67 4.22,-0.43 0.66,-0.9 6.84,-3.12 13.91,-4.65 7.07,-1.56 13.9,-3.75 15.04,-4.64 1.28,-0.67 9.49,-2.66 18.32,-4.18 8.63,-1.57 15.89,-3.99 15.89,-5.08 0,-1.14 2.9,-1.56 6.64,-0.9 3.76,0.9 6.65,0.66 6.65,-0.43 0,-0.9 9.72,-2.89 21.64,-4.45 11.71,-1.53 22.54,-3.75 23.63,-4.61 1.33,-1.14 16.13,-2.89 33.16,-4.42 17,-1.33 32.23,-3.12 33.79,-3.55 4.42,-1.33 140.31,-1.56 144.06,-0.24 1.76,0.67 11.25,1.8 20.98,2.66 39.57,3.13 46.41,3.98 48.63,5.55 1.33,0.86 11.68,2.85 23.21,4.41 11.48,1.52 22.07,3.75 23.63,4.84 1.52,1.14 4.65,1.57 7.27,0.67 2.46,-0.67 4.45,-0.43 4.45,0.66 0,1.14 7.26,3.32 16.13,4.89 8.6,1.52 16.99,3.51 18.09,4.41 1.33,0.86 6.64,2.42 11.95,3.32 5.74,0.86 8.59,2.19 6.84,3.28 -1.76,1.13 -2,2.23 -0.43,3.13 1.32,0.66 2.85,0.43 3.75,-0.9 1.33,-2.23 11.48,-0.67 15.7,2.42 1.29,1.13 7.5,2.89 13.67,4.41 6.41,1.33 11.49,3.32 11.49,4.65 0,1.33 1.56,1.76 3.32,1.1 1.75,-0.86 3.75,-0.43 4.41,0.46 0.47,1.1 3.75,2.66 7.07,3.52 3.32,0.66 11.06,3.75 17.27,6.41 5.93,2.89 14.33,5.97 18.32,6.87 3.98,0.86 7.97,2.85 8.63,4.61 0.66,1.8 1.76,2.66 2.85,1.99 0.9,-0.43 6.41,1.33 12.38,4.22 33.6,16.56 40.86,20.12 55,28.05 8.64,4.65 17.23,9.3 19.46,9.96 1.99,0.86 3.75,2.42 3.75,3.75 0,1.33 0.66,1.52 1.33,0.86 2.65,-2.42 14.57,7.54 13.28,11.05 -0.9,2 0,2.89 2.61,2.66 6.21,-1.09 15.94,2.23 15.94,5.31 0,1.57 3.75,4.18 8.4,5.74 4.41,1.76 9.49,4.85 11.02,7.08 1.56,2.42 4.45,4.18 6.21,4.18 1.75,0 3.08,2.22 3.08,5.54 0,5.31 5.51,7.93 7.07,3.32 0.43,-1.13 3.75,0.43 7.74,3.52 4.41,3.32 6.64,6.64 5.74,8.63 -1.33,3.99 1.76,4.41 5.31,0.86 1.76,-1.76 3.09,-1.09 4.85,2.23 1.56,2.65 3.75,4.64 5.31,4.64 1.56,0 8.83,5.75 16.36,12.82 7.7,6.83 18.76,16.56 24.73,21.4 6.17,4.89 11.06,9.96 11.25,11.53 0,1.33 1.99,3.28 4.45,3.94 2.43,0.67 4.42,2.23 4.42,3.32 0,1.14 2.65,3.32 6.17,4.89 3.32,1.52 6.84,5.07 8.16,7.93 1.14,2.65 3.32,4.88 4.46,4.88 2.62,0 18.75,15.9 18.75,18.55 0,0.9 3.98,5.74 8.63,10.82 24.96,26.72 31.37,34.26 34.92,40.86 2.19,3.79 5.08,7.07 6.6,7.07 1.33,0 4.42,3.13 6.64,6.64 2,3.75 4.65,6.64 5.51,6.64 0.9,0 3.13,3.32 5.08,7.31 1.8,3.94 6.88,11.01 11.06,15.9 4.21,4.84 7.73,9.92 7.73,11.05 0,1.33 4.65,8.17 9.96,15.24 5.51,7.3 9.92,14.14 9.92,15.23 0,1.33 3.75,7.31 8.4,13.48 4.65,6.21 9.96,14.37 11.95,17.89 3.99,7.97 10.39,20.11 14.34,27.61 1.56,3.13 8.87,17.93 16.37,33.17 7.3,15.23 14.8,30.27 16.56,33.59 1.76,3.09 3.09,7.07 3.09,8.83 0,1.76 1.79,6.64 4.21,11.06 2.86,5.74 3.32,8.82 1.76,10.35 -1.76,1.79 -1.33,2.46 1.1,2.46 2.46,0 3.98,2.85 5.07,8.83 0.9,4.84 2.47,8.82 3.56,8.82 1.33,0 1.56,0.9 0.9,2.23 -0.67,1.09 0.19,4.42 1.95,7.07 1.8,2.85 3.98,8.83 4.65,13.48 0.9,4.41 2.42,8.16 3.55,8.16 1.1,0 2,1.76 2,3.75 0,4.22 3.94,17.46 7.07,23.44 1.09,2.19 1.32,4.84 0.43,6.17 -0.67,1.09 -0.24,3.32 0.89,4.88 3.09,3.95 7.27,29.14 5.51,33.56 -1.09,3.12 -0.66,3.79 1.99,2.65 2.86,-1.09 3.99,0.9 5.32,10.16 0.86,6.41 1.52,17.46 1.52,24.77 0,7.3 0.23,11.48 0.9,9.29 1.76,-6.87 4.84,-1.79 3.51,6.18 -0.66,4.41 -0.19,7.73 0.9,7.73 2.23,0 7.31,46.17 7.31,66.95 0,6.84 0.86,12.58 2.18,12.58 1.33,0 2.23,20.55 2.23,57.46 0,36.88 -0.9,57.42 -2.23,57.42 -1.09,0 -2.18,5.32 -2.18,11.72 0,18.36 -5.08,65.63 -7.07,65.63 -0.9,0 -1.8,3.32 -1.8,7.3 0,7.5 -3.75,30.94 -5.94,36.88 -0.9,1.79 -1.13,5.08 -0.9,7.3 0.24,2.23 -0.43,5.31 -1.56,6.64 -1.09,1.53 -3.28,9.73 -4.84,18.13 -1.56,8.59 -3.52,15.9 -4.42,16.56 -0.66,0.66 -3.08,9.73 -5.31,20.55 -2.19,10.58 -4.84,19.22 -5.74,19.22 -0.9,0 -2.42,3.75 -3.32,8.39 -0.86,4.42 -3.32,12.15 -5.51,17 -1.99,4.88 -4.65,11.95 -5.31,15.47 -1.56,6.21 -6.84,18.78 -13.71,32.69 -1.76,3.56 -2.62,7.31 -1.76,8.4 0.66,1.13 0.23,1.99 -0.86,1.99 -1.13,0 -3.32,3.99 -4.88,8.87 -1.56,4.84 -3.52,8.83 -4.42,8.83 -0.9,0 -2.89,4.65 -4.41,10.15 -1.56,5.51 -4.22,10.59 -5.74,11.25 -1.76,0.67 -3.56,4.46 -4.42,8.4 -0.66,4.22 -2.65,7.97 -4.41,8.63 -1.8,0.67 -3.13,2.89 -3.13,4.85 0,1.99 -1.99,6.4 -4.61,9.96 -2.46,3.51 -3.78,6.41 -2.65,6.41 0.86,0 0.86,0.89 -0.47,1.75 -2.42,1.76 -7.07,9.3 -14.34,23.87 -2.46,5.08 -6.64,11.29 -8.86,13.71 -2.43,2.66 -4.42,6.17 -4.42,8.17 0,1.99 -1.52,3.98 -3.32,4.64 -1.76,0.86 -3.28,2.66 -3.28,4.42 0,1.76 -2.23,3.08 -5.55,3.08 -5.5,0 -7.73,3.32 -3.08,4.89 2.42,0.86 -4.42,15 -7.31,15 -0.86,0 -3.08,3.32 -5.07,7.3 -1.76,3.75 -7.74,12.15 -13.25,18.13 -5.31,6.17 -9.96,12.14 -9.96,13.24 0,1.33 -1.99,3.55 -4.41,5.08 -2.42,1.56 -4.42,3.75 -4.42,5.07 0,3.09 -24.53,30.94 -54.14,61.22 -22.07,22.96 -76.64,73.35 -79.29,73.35 -0.67,0 -1.33,-1.56 -1.33,-3.32 0,-3.98 -4.42,-4.41 -4.65,-0.43 -0.23,1.33 -0.43,3.75 -0.9,4.85 -0.19,1.33 -0.66,3.55 -0.66,5.08 -0.2,1.32 -1.53,2.65 -2.85,2.65 -1.33,0 -9.07,5.55 -17.04,12.15 -10.58,8.87 -15.89,11.72 -18.98,10.82 -3.09,-1.09 -3.98,-0.43 -3.09,1.8 0.86,1.76 -1.79,4.84 -6.21,7.93 -4.18,2.65 -7.5,3.98 -7.5,2.65 0,-1.09 -2.65,-2.18 -5.97,-2.18 -5.51,0.19 -5.75,0.43 -2.19,3.08 5.31,3.99 4.84,5.08 -3.32,9.07 -3.99,1.99 -11.72,5.93 -17.23,8.82 -5.54,3.09 -11.29,5.51 -13.04,5.51 -1.76,0 -2.43,0.67 -1.76,1.33 1.33,1.33 -3.75,4.88 -21.68,15.7 -2.42,1.57 -7.93,4.42 -12.15,6.64 -4.18,2 -8.16,4.42 -8.83,5.28 -0.66,0.66 -4.84,2.65 -9.26,4.45 -4.64,1.52 -8.39,3.75 -8.39,4.61 0,0.9 -0.67,1.56 -1.57,1.33 -1.99,-0.43 -18.79,7.54 -20.54,9.49 -0.67,0.66 -5.08,2.66 -9.96,4.22 -4.85,1.56 -10.83,3.98 -13.48,5.51 -6.6,4.21 -29.14,10.39 -31.8,8.86 -1.09,-0.66 -1.56,0 -0.9,1.96 0.9,2.46 -1.75,3.79 -11.05,5.97 -6.84,1.57 -12.35,3.32 -12.35,4.22 0,0.86 -5.54,2.85 -12.14,4.42 -6.88,1.52 -12.82,3.75 -13.48,4.64 -0.47,1.1 -2.46,1.33 -4.22,0.43 -1.76,-0.66 -3.32,-0.23 -3.32,0.9 0,1.1 -6.6,3.28 -14.8,4.85 -8.4,1.75 -15.9,3.75 -17.23,4.64 -1.09,0.86 -8.83,2.86 -17.23,4.42 -8.16,1.52 -15.23,3.51 -15.9,4.41 -0.46,0.9 -3.78,1.33 -7.07,0.9 -3.32,-0.23 -6.64,0.43 -7.3,1.52 -0.9,1.1 -7.31,2.66 -14.57,3.09 -17.93,1.56 -30.27,3.55 -32.93,5.31 -1.09,0.67 -6.64,1.33 -12.15,1.33 -5.55,0 -10.39,0.67 -11.05,1.56 -2.23,2.85 -138.99,8.4 -140.75,5.75 z m 78.87,-7.07 c 0,-0.47 -1.76,-2.23 -3.75,-3.75 -3.51,-2.9 -3.75,-2.66 -0.9,0.85 2.89,3.56 4.65,4.65 4.65,2.9 z m 71.6,-11.29 c -1.56,-3.52 -9.72,-9.07 -9.72,-6.41 0,2.42 7.07,9.73 9.06,9.73 1.09,0 1.33,-1.53 0.66,-3.32 z m -83.32,-3.75 c -0.66,-1.76 -1.29,-1.1 -1.29,1.32 -0.23,2.43 0.43,3.75 1.1,2.89 0.66,-0.66 0.86,-2.65 0.19,-4.21 z m -14.8,-12.82 c 0,-1.09 -1.1,-2.22 -2.42,-2.22 -1.1,0 -1.53,1.13 -0.86,2.22 0.66,1.33 1.75,2.23 2.42,2.23 0.43,0 0.86,-0.9 0.86,-2.23 z m 77.34,-3.08 c 0,-0.67 -0.86,-1.76 -2.19,-2.42 -1.13,-0.67 -2.22,-0.24 -2.22,0.86 0,1.32 1.09,2.42 2.22,2.42 1.33,0 2.19,-0.43 2.19,-0.86 z m -64.06,-10.16 c -3.75,-4.88 -8.17,-8.87 -9.49,-8.87 -1.33,0 1.52,3.99 6.17,8.87 4.65,4.85 9.06,8.83 9.49,8.83 0.47,0 -2.42,-3.98 -6.17,-8.83 z m -21.64,5.08 c -1.33,-0.47 -1.99,-2.23 -1.33,-3.32 0.86,-1.56 0.43,-1.76 -0.9,-0.9 -1.56,0.9 -3.08,-0.66 -3.75,-3.75 -1.56,-5.74 -15.7,-20.78 -17.69,-18.79 -1.76,1.56 3.55,12.81 5.97,12.81 1.1,0 5.08,3.56 9.07,7.74 3.75,4.22 7.96,7.73 9.29,7.54 1.1,0 0.86,-0.67 -0.66,-1.33 z m 65.82,-15.04 c -3.99,-4.18 -7.74,-7.3 -8.4,-6.84 -0.86,0.86 13.05,14.34 14.81,14.57 0.66,0 -2.19,-3.51 -6.41,-7.73 z m -68.48,-15.47 c -1.56,-1.76 -3.75,-3.32 -5.08,-3.32 -1.32,0 -0.46,1.56 1.96,3.32 5.54,4.22 6.64,4.22 3.12,0 z m 49.69,-3.32 c -3.52,-3.51 -6.84,-6.17 -7.27,-5.51 -1.32,1.33 8.83,12.15 11.49,12.15 1.33,0 -0.67,-2.89 -4.22,-6.64 z m -37.77,-38.44 c -8.17,-9.25 -14.14,-13.71 -14.14,-10.82 0,1.33 20.11,20.55 21.64,20.55 0.66,0 -2.86,-4.41 -7.5,-9.73 z m 365.47,-22.96 c -1.8,-2 -3.99,-5.55 -4.65,-7.5 -0.9,-2.23 -2.43,-3.99 -3.56,-3.99 -2.85,0 -0.86,5.94 5.08,14.14 2.46,3.75 4.88,5.31 5.31,3.75 0.43,-1.56 -0.43,-4.41 -2.18,-6.4 z m -535.16,-9.3 h 64.96 v -223.17 h 95 v 108.52 c 0,71.56 -0.66,107.81 -2.19,106.91 -1.13,-0.66 -2.22,0.67 -2.22,3.13 0,3.09 1.56,4.61 4.41,4.61 47.5,0.47 137.89,0 138.32,-0.67 0.43,-0.43 0.9,-50.58 0.9,-111.32 0,-114.46 0,-114.46 8.83,-115.36 25.19,-2.22 61.64,-7.3 65.19,-8.82 2.42,-1.14 11.25,-3.32 19.88,-4.65 8.4,-1.33 16.57,-3.56 18.09,-4.85 1.56,-1.13 4.65,-1.56 7.07,-0.66 2.23,0.66 4.88,0.43 5.55,-0.9 0.66,-1.09 6.4,-3.32 12.58,-4.65 6.4,-1.52 14.14,-4.18 17.22,-5.74 3.13,-1.76 7.74,-3.08 10.2,-3.08 4.18,0 11.01,-2.9 41.76,-17.9 7.07,-3.55 14.14,-6.4 15.46,-6.4 1.33,0 4.18,-1.99 6.41,-4.42 1.99,-2.46 5.27,-4.45 7.07,-4.45 1.76,0 3.28,-0.86 3.28,-2.19 0,-1.09 3.32,-3.55 7.31,-5.54 6.64,-3.09 10.82,-6.18 27.61,-20.98 3.99,-3.52 7.97,-6.41 8.83,-6.17 0.9,0 2.66,-1.99 3.99,-4.65 3.55,-7.07 14.37,-17.89 17.89,-17.89 1.56,0 2.89,-1.76 2.89,-4.22 0,-2.19 1.99,-6.6 4.65,-9.73 7.07,-9.02 19.64,-35.11 19.64,-40.43 0,-2.85 1.1,-5.74 2.23,-6.4 1.33,-0.86 1.76,-2.19 1.09,-3.32 -0.66,-1.1 -0.23,-2.42 1.1,-3.28 1.13,-0.67 2.23,-3.32 2.23,-5.75 0,-2.46 0.66,-3.98 1.75,-3.55 0.9,0.66 1.76,-16.33 2.23,-37.77 0.66,-37.35 -2.23,-76.25 -6.21,-81.1 -1.1,-1.33 -3.09,-7.3 -4.65,-13.24 -1.29,-6.21 -3.95,-13.48 -5.74,-16.37 -2.85,-4.41 -2.85,-5.5 -0.43,-7.07 2.42,-1.56 2.22,-1.99 -0.67,-1.99 -2.18,0 -3.98,-1.33 -3.98,-3.09 0,-1.56 -1.52,-4.21 -3.32,-5.74 -1.76,-1.56 -2.85,-3.32 -2.19,-4.22 0.43,-0.86 -1.09,-3.28 -3.55,-5.27 -2.19,-1.99 -4.18,-5.74 -4.18,-8.2 0,-2.42 -1.33,-4.42 -3.09,-4.42 -1.8,0 -3.75,-1.75 -4.65,-4.18 -1.75,-5.74 -42.65,-46.64 -46.64,-46.64 -1.75,0 -3.08,-1.09 -3.08,-2.18 0,-1.33 -1.76,-3.09 -3.75,-3.75 -5.75,-2 -18.32,-11.96 -18.32,-14.15 0,-1.13 1.75,-1.99 3.94,-1.99 1.99,0 5.55,-1.56 7.74,-3.32 2.46,-1.56 7.96,-3.75 12.85,-4.41 4.61,-0.9 8.59,-2.23 8.59,-3.09 0,-0.9 3.99,-3.12 8.83,-4.65 4.88,-1.56 8.87,-3.75 8.87,-4.88 0,-0.86 0.66,-1.52 1.75,-1.09 1.53,0.43 18.56,-9.5 35.12,-20.78 5.08,-3.52 10.16,-6.41 11.49,-6.41 1.32,0 2.46,-1.52 2.46,-3.32 0,-1.76 0.86,-3.28 1.76,-3.28 2.65,0 24.29,-21.68 32.26,-32.07 5.51,-7.07 6.84,-7.74 7.93,-4.61 1.13,3.51 1.8,3.51 3.98,0.66 2.23,-2.65 2,-3.55 -0.66,-4.65 -3.09,-1.09 -2.85,-2.22 1.76,-8.39 3.12,-3.99 6.21,-9.5 6.87,-12.15 0.86,-2.42 2.86,-5.98 4.61,-7.31 1.8,-1.52 3.32,-4.65 3.32,-6.83 0,-2.23 1.33,-4.89 3.13,-5.75 1.52,-0.89 4.18,-7.07 5.74,-13.47 1.33,-6.21 3.52,-12.15 4.61,-12.81 1.13,-0.67 1.33,-2.23 0.66,-3.56 -0.86,-1.09 -0.43,-4.41 0.9,-6.84 3.52,-7.3 7.07,-39.33 7.07,-65.39 0,-29.84 -4.41,-79.76 -7.07,-79.76 -1.09,0 -1.99,-2.66 -1.56,-5.98 0.23,-3.55 -0.43,-7.97 -1.33,-10.15 -0.86,-2.23 -0.43,-5.32 1.13,-7.07 2.43,-2.9 1.53,-4.22 -2.46,-3.75 -0.86,0.19 -2.18,-3.13 -2.85,-7.31 -0.9,-4.22 -2.89,-10.39 -4.65,-13.71 -1.75,-3.32 -3.32,-7.5 -3.32,-9.06 0,-1.53 -1.99,-6.6 -4.18,-11.06 -2.42,-4.41 -5.54,-11.01 -7.3,-14.76 -1.52,-3.56 -4.18,-7.97 -5.74,-9.73 -1.53,-1.56 -2.43,-3.98 -2,-5.31 0.47,-1.56 -1.09,-4.65 -3.51,-7.07 -2.23,-2.42 -6.21,-8.17 -8.4,-12.82 -4.65,-8.82 -44.65,-50.39 -55.9,-57.89 -3.55,-2.42 -9.96,-6.4 -14.37,-8.82 -4.18,-2.46 -8.4,-6.88 -9.26,-9.96 -0.9,-3.52 -1.56,-4.18 -1.8,-1.53 -0.19,4.61 -3.32,4.85 -7.73,0.43 -1.76,-1.76 -3.99,-3.32 -4.85,-3.32 -0.66,0 -7.96,-3.08 -16.13,-6.83 -28.28,-13.29 -32.26,-15.04 -40.43,-16.37 -5.31,-1.1 -8.4,-2.85 -8.4,-4.85 0,-2.65 -0.66,-2.89 -3.08,-0.89 -1.8,1.56 -3.75,1.75 -4.42,0.66 -0.66,-1.09 -10.62,-3.32 -22.34,-4.84 -11.49,-1.8 -20.98,-3.99 -20.98,-5.12 0,-1.09 -2.89,-1.52 -6.64,-1.09 -3.51,0.42 -6.83,0.23 -7.07,-0.67 -0.86,-1.99 -67.38,-6.41 -101.17,-6.41 -19.45,-0.19 -28.75,-1.09 -31.41,-3.08 -3.75,-2.66 -3.94,-10.82 -3.94,-114.88 v -111.8 h -132.58 l -0.23,-4.88 c -0.2,-4.65 -0.43,-4.65 -1.33,-0.67 -0.67,2.42 -1.99,5.55 -3.09,6.88 -1.09,1.52 -1.99,49.92 -1.99,113.32 0,60.97 -0.43,111.79 -1.09,112.93 -0.9,1.33 -19.46,2.18 -45.08,2.18 -34.69,0 -44.42,-0.66 -46.41,-3.08 -1.76,-2.23 -2.42,-33.36 -2.42,-113.13 v -112.46 c 0,-1.33 -18.32,-1.99 -51.25,-1.56 -28.28,0.23 -59.22,0.47 -68.52,0.47 h -17.22 l -0.43,114.45 -0.67,114.22 -130.15,0.43 c -80.63,0.43 -131.25,-0.19 -132.78,-1.52 -1.56,-1.33 -3.32,-1.56 -4.21,-0.67 -1.53,1.53 0.46,134.77 1.99,143.17 0.9,4.18 2.42,4.41 59.65,3.75 57.46,-0.67 59.02,-0.43 69.18,4.41 10.39,5.08 24.53,18.36 24.72,22.97 0,1.33 1.8,5.74 3.99,9.96 3.55,7.07 3.75,27.85 4.41,325.67 0.47,175 0,324.57 -0.66,332.3 -1.1,10.62 -2.85,15.47 -6.84,19.45 -2.89,2.89 -4.65,6.41 -3.98,8.17 0.66,1.79 -0.86,3.55 -4.42,4.45 -3.08,0.66 -5.74,2.62 -5.74,4.18 0,3.09 -14.57,8.16 -23.2,8.16 -3.09,0 -5.51,0.67 -5.51,1.8 0,0.86 -26.09,1.52 -58.13,1.29 -31.79,0 -59.64,0.23 -61.64,0.66 -3.75,0.9 -3.98,6.22 -3.98,71.61 v 70.46 h 279.49 l -0.43,112.93 c -0.23,98.99 0.24,112.7 3.09,111.57 1.79,-0.67 32.5,-1.33 68.28,-1.33 z m 643.83,-20.98 c 0,-0.43 -4.85,-6.17 -11.02,-12.58 -5.98,-6.4 -11.05,-10.62 -11.05,-9.53 0,1.8 19.88,23.21 21.44,23.21 0.43,0 0.67,-0.43 0.67,-1.1 z m -856.84,-5.97 c -1.09,-1.53 -2.62,-4.85 -3.28,-7.27 -1.13,-4.45 -1.13,-4.45 -1.33,0.2 0,2.42 0.86,5.54 2.42,7.07 3.52,3.55 5.08,3.32 2.19,0 z m 820.2,-41.76 c -2.23,-2.66 -7.07,-6.6 -10.86,-9.26 -5.51,-3.79 -5.28,-3.13 2.22,4.61 8.83,9.3 16.57,13.28 8.64,4.65 z m 41.95,-0.2 c -7.5,-8.87 -9.26,-10.62 -11.06,-10.62 -0.85,0 1.57,3.55 5.75,7.73 8.4,8.63 11.95,10.39 5.31,2.89 z m -55.24,-2.89 c -1.99,-3.08 -4.17,-5.08 -4.84,-4.41 -1.13,0.9 5.74,9.92 7.74,9.92 0.43,0 -0.9,-2.42 -2.9,-5.51 z m 34.5,-19.88 c -1.57,-1.76 -3.79,-3.32 -5.12,-3.32 -1.09,0 -0.43,1.99 1.8,4.41 4.61,5.08 7.73,4.22 3.32,-1.09 z m -15.28,-14.57 c -10.15,-8.87 -11.48,-8.2 -2.42,1.33 3.99,4.18 7.97,7.07 8.63,6.4 0.67,-0.66 -2.22,-3.98 -6.21,-7.73 z m -99.64,-55.04 c 0,-1.09 -1.1,-2.19 -2.43,-2.19 -1.09,0 -1.56,1.1 -0.89,2.19 0.66,1.33 1.79,2.23 2.46,2.23 0.43,0 0.86,-0.9 0.86,-2.23 z m 238.63,-18.56 c 0,-0.66 -0.9,-1.75 -2.19,-2.42 -1.13,-0.66 -2.23,-0.23 -2.23,0.9 0,1.29 1.1,2.42 2.23,2.42 1.29,0 2.19,-0.47 2.19,-0.9 z m -106.06,-76.44 c 0,-1.09 -1.09,-2.23 -2.42,-2.23 -1.09,0 -1.56,1.14 -0.9,2.23 0.67,1.33 1.76,2.23 2.43,2.23 0.46,0 0.89,-0.9 0.89,-2.23 z M 3544.38,2700.16 c -2.23,-2.43 -4.42,-3.99 -5.08,-3.32 -1.57,1.32 3.94,7.73 6.83,7.73 1.1,0 0.43,-1.99 -1.75,-4.41 z m 1279.72,-22.54 c -0.66,-1.76 -1.33,-1.1 -1.33,1.33 -0.23,2.42 0.43,3.75 1.1,2.85 0.66,-0.67 0.9,-2.62 0.23,-4.18 z m -1465.55,-80 c -0.66,-2 -2.22,-3.52 -3.32,-3.52 -1.09,0 -0.89,1.99 0.67,4.42 3.08,4.84 4.65,4.41 2.65,-0.9 z m 1415.83,-147.58 c -1.53,-1.56 -2.66,-1.76 -2.66,-0.43 0,3.09 2.66,5.74 4.22,4.18 0.43,-0.67 -0.24,-2.42 -1.56,-3.75 z m -1299.61,-24.96 c 0,-1.76 -0.9,-3.32 -2.23,-3.32 -1.09,0 -2.19,1.56 -2.19,3.32 0,1.76 1.1,3.32 2.19,3.32 1.33,0 2.23,-1.56 2.23,-3.32 z m 1305.82,-21.02 c 0,-1.09 -0.9,-2.18 -2.23,-2.18 -1.09,0 -2.19,1.09 -2.19,2.18 0,1.33 1.1,2.23 2.19,2.23 1.33,0 2.23,-0.9 2.23,-2.23 z M 3594.06,2286.99 c 0,-1.13 -1.09,-2.22 -2.42,-2.22 -1.09,0 -1.52,1.09 -0.86,2.22 0.67,1.33 1.76,2.19 2.42,2.19 0.43,0 0.86,-0.86 0.86,-2.19 z m 24.34,-22.11 c 0,-1.09 -0.9,-2.22 -2.23,-2.22 -1.09,0 -2.22,1.13 -2.22,2.22 0,1.33 1.13,2.23 2.22,2.23 1.33,0 2.23,-0.9 2.23,-2.23 z m 5.51,-4.41 c 0.66,-1.09 0.23,-2.23 -0.9,-2.23 -1.33,0 -2.42,1.14 -2.42,2.23 0,1.33 0.43,2.19 0.89,2.19 0.67,0 1.76,-0.86 2.43,-2.19 z m 7.73,-11.06 c 0,-1.09 -1.09,-2.22 -2.42,-2.22 -1.13,0 -1.56,1.13 -0.9,2.22 0.66,1.33 1.76,2.23 2.42,2.23 0.47,0 0.9,-0.9 0.9,-2.23 z m 55.24,-51.91 c 0,-1.76 -0.9,-3.32 -2.19,-3.32 -1.14,0 -2.23,1.56 -2.23,3.32 0,1.76 1.09,3.32 2.23,3.32 1.29,0 2.19,-1.56 2.19,-3.32 z m -123.72,-50.82 c -5.31,-5.55 -10.19,-9.96 -10.86,-9.96 -0.66,0 3.32,4.41 8.64,9.96 5.31,5.51 10.15,9.92 10.82,9.92 0.66,0 -3.32,-4.41 -8.6,-9.92 z m 570.04,-8.16 c 0,-3.56 -0.66,-4.22 -2.42,-2.47 -1.33,1.33 -1.8,3.56 -1.13,4.89 2.42,3.75 3.55,2.85 3.55,-2.42 z m 43.09,-26.1 c -0.67,-1.09 -2.42,-2.19 -3.56,-2.19 -1.32,0 -1.52,1.1 -0.85,2.19 0.66,1.33 2.42,2.23 3.51,2.23 1.33,0 1.56,-0.9 0.9,-2.23 z m -264.06,-117.11 c 0,-1.09 1.56,-1.52 3.32,-0.86 1.79,0.86 3.32,0.2 3.32,-1.33 0,-3.32 -9.26,-1.99 -10.59,1.76 -0.47,1.33 0.2,2.66 1.52,2.66 1.33,0 2.43,-0.9 2.43,-2.23 z m 102.77,-46.4 c 0.66,-1.1 0.2,-2.19 -0.9,-2.19 -1.33,0 -2.42,1.09 -2.42,2.19 0,1.32 0.43,2.22 0.86,2.22 0.66,0 1.8,-0.9 2.46,-2.22 z m -235.31,-5.51 c -1.57,-1.76 -3.75,-3.32 -5.08,-3.32 -1.33,0 -0.47,1.76 1.99,4.22 4.85,4.61 7.27,4.18 3.09,-0.9 z"
         style="fill:#000000;fill-opacity:1;fill-rule:nonzero;stroke:none"
         id="path14" />
      <path
         d="m 4109.34,3059.84 c -2,-1.99 -2.66,-36.21 -2.66,-140.27 v -137.66 l 96.76,0.43 c 53.04,0 93.24,0.67 89.49,1.1 -3.98,0.47 -7.27,1.79 -7.27,3.08 0,2.89 12.58,2.46 17.66,-0.62 3.32,-2.23 5.08,-2.23 6.17,-0.47 0.9,1.33 5.12,3.32 9.3,4.22 12.38,2.42 33.59,13.67 45.51,24.06 5.97,5.08 12.61,9.96 14.8,10.82 1.99,0.67 3.75,2.66 3.75,4.22 0,1.52 3.56,6.84 7.74,11.72 4.21,4.84 7.73,10.15 7.73,11.68 0,1.8 2.23,5.97 4.65,9.73 5.31,7.07 8.63,17.69 10.15,32.26 0.67,5.08 2,9.3 3.09,9.3 2.66,0 2.66,52.34 -0.19,54.1 -1.1,0.66 -2.23,3.32 -2.23,5.98 0,4.41 -4.84,17.22 -9.06,23.86 -1.1,1.76 -3.28,5.98 -4.85,9.5 -1.33,3.32 -3.75,5.97 -5.31,5.97 -1.33,0 -3.09,1.76 -3.98,4.18 -1.1,3.79 -17.66,16.6 -21.41,16.8 -0.9,0 -3.56,2.22 -6.21,5.08 -2.42,2.65 -6.41,4.88 -8.59,4.88 -2.23,0 -5.32,1.52 -6.88,3.32 -2.19,2.66 -3.52,2.85 -5.74,0.86 -2.42,-1.99 -3.09,-1.76 -3.09,0.66 0,2.23 -3.98,4.42 -10.39,6.21 -5.94,1.33 -12.58,3.52 -15,4.61 -6.87,3.13 -47.07,8.64 -63.44,8.64 -8.16,0 -15.46,1.09 -16.13,2.22 -1.99,3.28 -121.05,2.85 -124.37,-0.47 z m 154.21,-53.47 c 0,-0.63 -0.89,-1.76 -2.22,-2.42 -1.1,-0.67 -2.19,-0.2 -2.19,0.89 0,1.33 1.09,2.43 2.19,2.43 1.33,0 2.22,-0.43 2.22,-0.9 z m -5.07,-23.83 c -0.67,-1.56 -1.1,-0.47 -1.1,2.62 0,3.12 0.43,4.22 1.1,2.89 0.43,-1.57 0.43,-4.18 0,-5.51 z m -1.1,-39.57 c -0.66,-3.99 -1.79,-5.98 -2.89,-4.85 -1.09,1.1 -1.33,5.28 -0.66,9.26 1.76,8.87 4.88,4.89 3.55,-4.41 z m -2.22,-17.89 c -1.57,-1.56 -2.66,-1.76 -2.66,-0.43 0,3.08 2.66,5.74 4.22,4.18 0.43,-0.67 -0.24,-2.42 -1.56,-3.75 z m -27.62,-33.13 c -0.66,-1.79 -1.33,-1.13 -1.33,1.29 -0.23,2.46 0.43,3.79 1.09,2.89 0.67,-0.66 0.9,-2.65 0.24,-4.18 z m 24.96,2.62 c 0,-1.09 -1.09,-2.19 -2.42,-2.19 -1.1,0 -1.56,1.1 -0.9,2.19 0.66,1.33 1.8,2.23 2.46,2.23 0.43,0 0.86,-0.9 0.86,-2.23 z m -17.66,-16.99 c 0,-1.56 -0.89,-2.89 -2.22,-2.89 -1.1,0 -2.19,0.66 -2.19,1.79 0,0.86 -0.66,3.95 -1.33,7.07 -1.33,5.28 -1.33,5.51 1.99,1.1 1.96,-2.42 3.75,-5.74 3.75,-7.07 z m -41.99,5.31 c 0,-0.47 -2.42,-3.12 -5.51,-5.98 -3.12,-2.89 -5.54,-4.64 -5.54,-3.75 0,0.67 2.22,3.32 4.88,5.94 4.61,4.22 6.17,5.31 6.17,3.79 z m 50.59,-29.61 c 0.47,-5.55 -3.75,-2.89 -5.08,3.32 -0.66,3.28 -1.76,8.36 -2.42,11.49 -0.67,3.32 0.43,2.18 3.08,-3.32 2.43,-4.89 4.42,-10.16 4.42,-11.49 z m 4.65,-47.5 c 0,-4.22 -0.43,-4.45 -2.23,-1.8 -2.85,4.22 -2.85,6.64 0,6.64 1.33,0 2.23,-2.22 2.23,-4.84 z m 21.64,-7.3 c -0.67,-0.67 -2,0.43 -2.66,2.65 -1.29,3.09 -1.09,3.32 1.13,1.33 1.53,-1.56 2.19,-3.32 1.53,-3.98 z m -163.05,-304.69 c 0,-123.52 0.43,-149.14 3.09,-151.37 3.32,-2.85 200.19,-3.32 200.19,-0.43 0,0.9 10.59,2.66 23.63,4.22 13.05,1.29 24.11,3.52 24.77,4.41 0.66,1.1 5.27,2.66 10.16,3.52 4.84,0.9 10.82,2.89 13.24,4.22 2.42,1.33 5.54,2.42 6.64,2.62 3.51,0.23 19.65,8.63 21.4,11.05 0.9,1.33 1.8,1.33 1.8,0.47 0,-3.12 25.63,17.66 36.45,29.8 5.74,6.41 11.91,15.04 13.71,19.03 1.52,3.75 3.75,7.07 4.84,7.07 1.1,0 3.32,4.41 4.88,9.92 1.53,5.55 3.52,9.96 4.42,9.96 0.66,0 2.65,6.17 4.18,13.91 1.33,7.5 3.08,15.23 3.55,17.03 1.76,4.84 1.53,57.42 0,58.98 -0.66,0.67 -1.33,3.32 -1.33,5.51 0,2.23 -1.13,3.99 -2.46,3.99 -1.29,0 -1.75,1.75 -0.86,4.21 0.67,2.43 -0.23,5.51 -2.22,7.5 -1.76,2 -3.32,4.42 -3.32,5.32 0,1.09 -2.85,5.5 -6.6,9.49 -3.56,3.98 -6.64,8.4 -6.64,9.49 0,1.09 -2.43,4.41 -5.51,7.31 -3.13,2.85 -5.55,4.6 -5.55,3.94 0,-0.62 -2.66,0.9 -5.74,3.32 -3.32,2.66 -7.27,4.65 -8.83,4.65 -1.76,0 -3.09,1.33 -3.09,2.89 0,2.66 -14.8,10.35 -29.41,15.23 -3.75,1.33 -7.93,3.09 -9.26,3.99 -1.09,0.86 -7.07,2.85 -13.24,4.18 -5.98,1.56 -12.62,3.32 -14.37,4.22 -1.76,0.66 -4.65,0.86 -6.18,0.66 -1.79,-0.23 -4.22,0.43 -5.78,1.76 -5.08,4.41 -58.32,6.64 -151.99,6.84 h -94.57 z m 89.92,119.76 c -0.66,-1.79 -1.33,-1.13 -1.33,1.33 -0.19,2.42 0.43,3.75 1.1,2.85 0.66,-0.66 0.9,-2.65 0.23,-4.18 z m -79.53,-21.01 c -0.66,-2.19 -1.09,-0.86 -1.09,2.66 0,3.75 0.43,5.31 1.09,3.98 0.43,-1.56 0.43,-4.65 0,-6.64 z m 86.84,-9.06 c 0,-4.61 -0.47,-5.28 -2.23,-2.66 -2.85,4.45 -2.85,11.72 0,9.96 1.33,-0.66 2.23,-3.98 2.23,-7.3 z m -50.82,-72.03 c 0,-0.67 -0.9,-1.76 -2.23,-2.43 -1.09,-0.66 -2.19,-0.19 -2.19,0.9 0,1.33 1.1,2.42 2.19,2.42 1.33,0 2.23,-0.43 2.23,-0.89 z"
         style="fill:#000000;fill-opacity:1;fill-rule:nonzero;stroke:none"
         id="path16" />
      <path
         d="m 663.398,282.191 c 0,-85.55 -27.269,-150.39 -81.718,-194.5308 C 527.191,43.5898 449.488,21.1289 348.551,20.3086 H 3.08984 V 909.059 H 314.961 c 102.891,0 183.437,-19.758 241.559,-59.219 58.21,-39.488 87.351,-100.738 87.351,-183.75 0,-40.309 -10.16,-77.34 -30.473,-111.09 -20.308,-33.75 -52.457,-59.379 -96.41,-76.879 52.071,-13.039 89.461,-38.281 112.192,-75.781 22.808,-37.418 34.218,-77.461 34.218,-120.149 z M 186.84,760.621 V 537.34 h 128.121 c 96.879,0 145.309,36.609 145.309,109.851 0,74.059 -46.399,111.868 -139.219,113.43 z M 480.43,284.059 c 0,79.691 -40.309,120.941 -120.942,123.75 H 186.84 v -239.84 h 156.25 c 46.75,0 81.32,10.98 103.75,32.972 22.379,21.95 33.59,49.68 33.59,83.118 z"
         style="fill:#000000;fill-opacity:1;fill-rule:nonzero;stroke:none"
         id="path18" />
      <path
         d="m 818.012,851.559 c 0,26.453 8.937,48.32 26.867,65.632 17.891,17.258 41.922,25.93 72.031,25.93 30.078,0 54.07,-8.672 71.879,-25.93 17.891,-17.312 26.871,-39.179 26.871,-65.632 0,-26.047 -8.98,-47.727 -26.871,-65 -17.809,-17.297 -41.801,-25.938 -71.879,-25.938 -30.109,0 -54.14,8.641 -72.031,25.938 -17.93,17.273 -26.867,38.953 -26.867,65 z M 1005.98,20.3086 H 828.949 v 660.473 h 177.031 z"
         style="fill:#000000;fill-opacity:1;fill-rule:nonzero;stroke:none"
         id="path20" />
      <path
         d="M 1511.45,24.5313 C 1478.4,13.5898 1443.01,8.12109 1405.2,8.12109 c -57.82,0 -103.83,15.03911 -137.97,45.16021 -34.18,30.0781 -51.25,80.1597 -51.25,150.1597 v 348.438 h -97.03 v 128.902 h 97.03 V 843.75 h 176.4 V 680.781 h 112.35 V 551.879 h -112.35 v -330.16 c 0,-27.739 5.67,-46.059 17.03,-55 11.45,-8.867 28.36,-13.278 50.79,-13.278 17.89,0 35,1.598 51.25,4.84 z"
         style="fill:#000000;fill-opacity:1;fill-rule:nonzero;stroke:none"
         id="path22" />
      <path
         d="m 1907.58,150.309 c 32.19,0 58.63,8.832 79.37,26.57 20.71,17.691 31.29,41.601 31.72,71.711 h 166.1 c -0.86,-70 -27.62,-127.61 -80.32,-172.8087 -52.73,-45.1211 -117.3,-67.66021 -193.75,-67.66021 -102.18,0 -178.59,32.23051 -229.22,96.71891 -50.62,64.461 -75.93,143.519 -75.93,237.191 v 17.028 c 0,93.211 25.19,172.191 75.62,236.882 50.51,64.68 126.8,97.028 228.91,97.028 80.94,0 146.72,-23.239 197.34,-69.688 50.7,-46.371 76.49,-109.222 77.35,-188.59 h -166.1 c -0.43,32.188 -10.23,59.571 -29.37,82.188 -19.07,22.57 -46.49,33.902 -82.19,33.902 -51.37,0 -84.96,-19.301 -100.78,-57.812 -15.86,-38.438 -23.75,-88.75 -23.75,-150.938 0,-50.941 7.81,-95.621 23.44,-134.062 15.62,-38.438 49.45,-57.66 101.56,-57.66 z"
         style="fill:#000000;fill-opacity:1;fill-rule:nonzero;stroke:none"
         id="path24" />
      <path
         d="m 2288.01,356.559 c 0,96.023 27.22,176.101 81.72,240.16 54.57,64.14 131.48,96.25 230.78,96.25 100.51,0 177.81,-32.11 231.87,-96.25 54.14,-64.059 81.25,-144.137 81.25,-240.16 V 343.75 c 0,-96.051 -27.11,-176.02 -81.25,-239.84 -54.06,-63.8709 -130.93,-95.78891 -230.62,-95.78891 -98.99,0 -175.63,31.09771 -230,93.28891 -54.3,62.262 -82.19,140.469 -83.75,234.531 z m 177.03,-12.809 c 0,-53.668 10.23,-99.34 30.78,-137.031 20.51,-37.617 55.82,-56.41 105.94,-56.41 49.14,0 83.98,18.671 104.53,56.101 20.62,37.5 30.94,87.539 30.94,150.149 0,52.5 -10.32,97.972 -30.94,136.41 -20.55,38.511 -55.78,57.812 -105.78,57.812 -49.69,0 -84.69,-19.179 -105,-57.5 -20.31,-38.242 -30.47,-88.082 -30.47,-149.531 z"
         style="fill:#000000;fill-opacity:1;fill-rule:nonzero;stroke:none"
         id="path26" />
      <path
         d="m 3051.05,851.559 c 0,26.453 8.95,48.32 26.88,65.632 17.89,17.258 41.91,25.93 72.03,25.93 30.08,0 54.06,-8.672 71.88,-25.93 17.89,-17.312 26.87,-39.179 26.87,-65.632 0,-26.047 -8.98,-47.727 -26.87,-65 -17.82,-17.297 -41.8,-25.938 -71.88,-25.938 -30.12,0 -54.14,8.641 -72.03,25.938 -17.93,17.273 -26.88,38.953 -26.88,65 z M 3239.02,20.3086 h -177.031 v 660.473 h 177.031 z"
         style="fill:#000000;fill-opacity:1;fill-rule:nonzero;stroke:none"
         id="path28" />
      <path
         d="m 3698.71,550.16 c -50.12,0 -87.34,-21.211 -111.72,-63.601 V 20.3086 h -176.4 V 680.781 h 165.46 l 6.1,-75.781 c 47.19,58.629 110.47,87.969 189.84,87.969 62.19,0 112.39,-18.559 150.63,-55.629 38.32,-36.988 57.69,-101.481 58.12,-193.43 V 20.3086 H 3803.71 V 441.41 c 0,42.379 -9.06,71.09 -27.19,86.09 -18.12,15.082 -44.06,22.66 -77.81,22.66 z"
         style="fill:#000000;fill-opacity:1;fill-rule:nonzero;stroke:none"
         id="path30" />
      <path
         d="m 4508.2,20.3086 h 183.121 v 888.75 H 4508.2 Z"
         style="fill:#000000;fill-opacity:1;fill-rule:nonzero;stroke:none"
         id="path32" />
      <path
         d="m 5165.08,550.16 c -50.12,0 -87.35,-21.211 -111.72,-63.601 V 20.3086 H 4876.95 V 680.781 h 165.47 l 6.1,-75.781 c 47.18,58.629 110.46,87.969 189.84,87.969 62.19,0 112.38,-18.559 150.62,-55.629 38.32,-36.988 57.7,-101.481 58.13,-193.43 V 20.3086 H 5270.08 V 441.41 c 0,42.379 -9.06,71.09 -27.19,86.09 -18.12,15.082 -44.06,22.66 -77.81,22.66 z"
         style="fill:#000000;fill-opacity:1;fill-rule:nonzero;stroke:none"
         id="path34" />
      <path
         d="m 5967.81,203.441 c 0,18.75 -8.67,34.528 -25.93,47.34 -17.31,12.809 -54.46,25.309 -111.41,37.5 -68.05,14.571 -123.83,37.34 -167.35,68.278 -43.55,30.941 -65.31,74.691 -65.31,131.25 0,55 23.28,102.89 69.85,143.75 46.64,40.941 111.09,61.41 193.28,61.41 85.82,0 153.36,-20.16 202.65,-60.469 49.26,-40.309 73.91,-91.211 73.91,-152.66 h -176.41 c 0,25.32 -8.2,46.289 -24.53,62.969 -16.25,16.64 -41.68,25 -76.25,25 -29.29,0 -52.15,-6.829 -68.59,-20.469 -16.49,-13.668 -24.69,-30.621 -24.69,-50.93 0,-18.75 8.67,-34.219 26.09,-46.41 17.5,-12.191 49.89,-22.969 97.19,-32.34 71.57,-14.301 130.94,-36.058 178.13,-65.32 47.18,-29.289 70.78,-76.68 70.78,-142.18 0,-58.25 -25.08,-106.488 -75.16,-144.6912 -50,-38.2383 -117.5,-57.34771 -202.5,-57.34771 -92.42,0 -163.04,23.67971 -211.87,71.09771 -48.75,47.3832 -73.13,97.9722 -73.13,151.7222 h 167.82 c 1.64,-34.609 14.37,-59.461 38.12,-74.531 23.83,-15 51.41,-22.5 82.66,-22.5 68.43,0 102.65,23.16 102.65,69.531 z"
         style="fill:#000000;fill-opacity:1;fill-rule:nonzero;stroke:none"
         id="path36" />
      <path
         d="m 6282.19,851.559 c 0,26.453 8.94,48.32 26.87,65.632 17.89,17.258 41.92,25.93 72.03,25.93 30.08,0 54.07,-8.672 71.88,-25.93 17.89,-17.312 26.87,-39.179 26.87,-65.632 0,-26.047 -8.98,-47.727 -26.87,-65 -17.81,-17.297 -41.8,-25.938 -71.88,-25.938 -30.11,0 -54.14,8.641 -72.03,25.938 -17.93,17.273 -26.87,38.953 -26.87,65 z M 6470.16,20.3086 h -177.039 v 660.473 h 177.039 z"
         style="fill:#000000;fill-opacity:1;fill-rule:nonzero;stroke:none"
         id="path38" />
      <path
         d="m 7053.16,20.3086 -8.59,70.1602 c -43.55,-54.918 -99.92,-82.34771 -169.06,-82.34771 -81.8,0 -145.28,31.71871 -190.47,95.15991 -45.12,63.52 -67.66,143.321 -67.66,239.379 v 12.809 c 0,100.39 22.54,181.761 67.66,244.062 45.19,62.27 109.1,93.438 191.72,93.438 64.26,0 117.19,-23.828 158.75,-71.41 v 336.25 h 176.87 V 20.3086 Z M 6794.41,342.66 c 0,-52.93 9.3,-98.051 27.97,-135.32 18.75,-37.18 51.29,-55.781 97.66,-55.781 53.75,0 92.23,22.742 115.47,68.281 v 261.879 c -22.42,45.621 -60.47,68.441 -114.22,68.441 -45.94,0 -78.59,-18.75 -97.97,-56.25 -19.3,-37.43 -28.91,-87.82 -28.91,-151.25 z"
         style="fill:#000000;fill-opacity:1;fill-rule:nonzero;stroke:none"
         id="path40" />
      <path
         d="M 7941.88,127.809 C 7920.7,97.582 7888.59,70.082 7845.47,45.3086 7802.34,20.5117 7748.63,8.12109 7684.38,8.12109 c -102.62,0 -182.82,30.98051 -240.63,92.96891 -57.73,62.07 -86.8,137.07 -87.19,225 v 25.629 c 0,99.691 27.74,181.441 83.28,245.312 55.63,63.949 130.63,95.938 225,95.938 94.77,0 166.96,-29.77 216.57,-89.219 49.68,-59.371 74.53,-137.891 74.53,-235.469 v -75.16 h -420.47 c 6.01,-42.73 22.89,-77.18 50.62,-103.43 27.7,-26.25 64.11,-39.382 109.22,-39.382 67.19,0 120.31,24.613 159.38,73.91 z m -278.29,422.972 c -37.42,0 -66.32,-12.66 -86.71,-37.972 -20.32,-25.227 -33.56,-58.118 -39.69,-98.75 h 245.47 v 13.281 c -0.86,35.39 -10.75,64.851 -29.69,88.281 -18.87,23.438 -48.67,35.16 -89.38,35.16 z"
         style="fill:#000000;fill-opacity:1;fill-rule:nonzero;stroke:none"
         id="path42" />
      <path
         d="m 8393.01,520.781 c -66.25,0 -109.81,-22.582 -130.63,-67.66 V 20.3086 H 8085.51 V 680.781 h 166.56 l 5.47,-78.75 c 34.57,60.629 83.63,90.938 147.19,90.938 22.26,0 40.35,-2.66 54.22,-7.969 l -1.72,-169.059 z"
         style="fill:#000000;fill-opacity:1;fill-rule:nonzero;stroke:none"
         id="path44" />
    </g>
  </g>
</svg>
